<svg width="265" height="337" viewBox="0 0 265 337" fill="none" xmlns="http://www.w3.org/2000/svg">
<path d="M213.552 154.398C213.552 154.398 174.678 126.871 169.749 124.168C165.061 121.589 150.182 119.717 148.85 119.393L122.215 113.603L81.5177 114.818L69.8447 121.83L40.3123 135.423C32.261 139.125 25.9166 145.747 22.5612 153.941L3.90259 199.452L50.1869 213.128L51.6273 261.136L40.7119 336.77H176.193L169.374 191.807L183.478 194.91L213.552 154.398Z" fill="#192E35"/>
<path d="M51.0446 193.795C51.0446 193.795 50.5617 194.153 49.6126 194.702C48.6717 195.226 47.2396 196.017 45.283 196.283C43.3181 196.557 40.9785 196.083 38.5306 195.301C36.0661 194.528 33.4767 193.33 30.8374 191.957C28.198 190.584 25.7252 189.195 23.4106 188.072C21.0959 186.941 18.9395 186.084 17.0661 185.543C15.2011 184.986 13.6358 184.745 12.5534 184.628C12.0122 184.57 11.5876 184.545 11.3045 184.537C11.0214 184.52 10.8716 184.503 10.8716 184.503C10.8716 184.503 11.4794 184.47 12.5618 184.562C13.6525 184.653 15.2178 184.878 17.0994 185.427C18.9811 185.959 21.1542 186.808 23.4772 187.931C25.8085 189.045 28.2813 190.435 30.9206 191.807C33.5517 193.18 36.1327 194.369 38.5806 195.151C41.0201 195.933 43.3347 196.416 45.2747 196.158C47.2063 195.908 48.6301 195.143 49.5792 194.636C50.0538 194.369 50.4202 194.153 50.6616 194.003C50.9114 193.87 51.0446 193.795 51.0446 193.795Z" fill="white"/>
<path d="M49.0713 171.377C49.0713 171.377 48.963 171.377 48.7632 171.377C48.5051 171.369 48.222 171.352 47.8807 171.335C47.1147 171.302 46.0073 171.211 44.6418 171.077C41.9109 170.811 38.1559 170.271 34.0678 169.339C29.988 168.399 26.3662 167.242 23.7935 166.286C22.5113 165.812 21.4705 165.404 20.7711 165.105C20.4631 164.971 20.1966 164.855 19.9552 164.755C19.772 164.672 19.6804 164.622 19.6804 164.622C19.6804 164.622 19.7803 164.647 19.9718 164.722C20.205 164.813 20.4797 164.922 20.7961 165.038C21.5121 165.321 22.5446 165.712 23.8351 166.169C26.4162 167.093 30.0297 168.232 34.1011 169.164C38.1725 170.096 41.9275 170.653 44.6502 170.953C46.0073 171.102 47.1147 171.202 47.8807 171.26C48.222 171.285 48.5051 171.31 48.7632 171.335C48.9714 171.352 49.0713 171.377 49.0713 171.377Z" fill="white"/>
<path d="M78.1874 124.168C78.1874 124.168 77.8461 124.734 77.105 125.682C76.3724 126.639 75.1817 127.911 73.4916 129.242C71.818 130.582 69.6116 131.913 67.0306 133.102C64.4495 134.292 61.5021 135.332 58.3715 136.263C55.2326 137.187 52.2269 138.01 49.5376 138.9C46.8483 139.782 44.4754 140.722 42.5604 141.687C40.6454 142.644 39.18 143.567 38.2142 144.274C37.7147 144.607 37.3733 144.923 37.1152 145.106C36.8654 145.298 36.7322 145.389 36.7322 145.389C36.7322 145.389 37.2234 144.94 38.1809 144.216C39.1384 143.492 40.6038 142.544 42.5104 141.571C44.4171 140.589 46.7983 139.641 49.4876 138.742C52.1769 137.844 55.1826 137.02 58.3215 136.089C61.4521 135.157 64.3912 134.125 66.964 132.953C69.5284 131.771 71.7348 130.465 73.4166 129.143C75.0985 127.828 76.3058 126.572 77.0468 125.632C77.4464 125.183 77.6879 124.784 77.8877 124.542C78.0792 124.293 78.1874 124.168 78.1874 124.168Z" fill="white"/>
<path d="M161.489 130.374C161.489 130.374 161.364 130.315 161.139 130.182C160.906 130.057 160.582 129.841 160.14 129.625C159.266 129.151 157.959 128.527 156.277 127.953C154.595 127.371 152.539 126.83 150.216 126.397C147.901 125.956 145.328 125.615 142.631 125.233C137.269 124.476 132.415 123.785 128.818 123.278C127.103 123.028 125.687 122.82 124.638 122.67C124.189 122.604 123.814 122.546 123.506 122.496C123.248 122.454 123.115 122.421 123.115 122.421C123.115 122.421 123.256 122.429 123.514 122.462C123.822 122.504 124.197 122.546 124.655 122.604C125.712 122.745 127.128 122.937 128.843 123.161C132.44 123.66 137.294 124.326 142.656 125.066C145.353 125.441 147.926 125.79 150.249 126.239C152.572 126.68 154.628 127.237 156.319 127.836C158.009 128.427 159.308 129.076 160.174 129.567C161.04 130.049 161.489 130.374 161.489 130.374Z" fill="white"/>
<path d="M142.622 139.558C142.622 139.558 142.314 139.699 141.723 139.965C141.132 140.231 140.25 140.606 139.109 141.063C136.819 141.97 133.48 143.218 129.251 144.457C125.03 145.689 119.926 146.97 114.156 147.785C108.386 148.667 101.95 148.667 95.2391 148.45C88.52 148.234 82.1256 147.935 76.314 148.301C70.5108 148.642 65.3237 149.648 61.1607 151.062C56.981 152.452 53.8671 154.248 51.8438 155.629C50.8447 156.353 50.0787 156.919 49.5958 157.343C49.0963 157.759 48.8298 157.967 48.8298 157.967C48.8298 157.967 49.0796 157.742 49.5708 157.318C50.0538 156.877 50.8114 156.303 51.8022 155.571C53.8171 154.174 56.9394 152.352 61.119 150.946C65.2904 149.515 70.4858 148.492 76.2974 148.143C82.1173 147.768 88.5283 148.059 95.2391 148.276C101.95 148.5 108.369 148.5 114.122 147.627C119.884 146.82 124.98 145.555 129.209 144.333C133.439 143.11 136.786 141.879 139.076 140.997C140.225 140.548 141.107 140.19 141.707 139.932C142.306 139.674 142.622 139.558 142.622 139.558Z" fill="white"/>
<path d="M155.395 147.694C155.395 147.702 155.345 147.718 155.245 147.76C155.103 147.81 154.962 147.868 154.803 147.926C154.42 148.068 153.863 148.251 153.163 148.451C151.773 148.842 149.791 149.282 147.56 149.307C145.328 149.332 143.339 148.916 141.948 148.5C141.249 148.292 140.699 148.101 140.316 147.951C140.166 147.893 140.025 147.835 139.883 147.777C139.783 147.735 139.733 147.71 139.733 147.702C139.733 147.694 139.792 147.71 139.892 147.743C140.033 147.793 140.183 147.835 140.333 147.885C140.716 148.018 141.274 148.193 141.973 148.384C143.364 148.767 145.337 149.158 147.552 149.133C149.758 149.108 151.723 148.692 153.122 148.334C153.821 148.151 154.387 147.985 154.77 147.868C154.928 147.827 155.078 147.777 155.22 147.735C155.336 147.702 155.395 147.685 155.395 147.694Z" fill="white"/>
<path d="M129.126 171.227C129.126 171.227 125.129 172.067 118.61 173.041C115.346 173.531 111.45 174.022 107.112 174.446C102.774 174.854 97.9866 175.203 92.9577 175.395C87.9288 175.569 83.133 175.569 78.7701 175.478C74.4073 175.361 70.4857 175.162 67.2053 174.904C60.6277 174.405 56.5813 173.856 56.5813 173.856C56.5813 173.856 56.8394 173.872 57.3223 173.914C57.8469 173.964 58.5462 174.039 59.4371 174.122C61.2688 174.313 63.9249 174.546 67.2136 174.779C70.5024 175.02 74.424 175.203 78.7785 175.32C83.133 175.403 87.9288 175.395 92.9577 175.228C97.9866 175.037 102.766 174.696 107.104 174.297C111.441 173.872 115.338 173.398 118.602 172.924C121.866 172.45 124.497 172.034 126.312 171.701C127.186 171.551 127.885 171.427 128.402 171.344C128.876 171.26 129.126 171.227 129.126 171.227Z" fill="white"/>
<path d="M161.739 168.865C161.739 168.865 161.639 168.881 161.439 168.881C161.189 168.89 160.906 168.898 160.573 168.906C159.816 168.923 158.725 168.939 157.376 168.939C154.679 168.931 150.948 168.831 146.844 168.482C142.739 168.124 139.051 167.575 136.395 167.093C135.071 166.851 133.997 166.643 133.256 166.485C132.931 166.419 132.656 166.352 132.406 166.302C132.215 166.261 132.115 166.228 132.115 166.228C132.115 166.228 132.223 166.236 132.415 166.269C132.665 166.311 132.939 166.361 133.272 166.419C134.097 166.569 135.154 166.752 136.411 166.976C139.067 167.425 142.756 167.958 146.852 168.307C150.948 168.657 154.67 168.773 157.368 168.815C158.65 168.823 159.724 168.831 160.557 168.84C160.89 168.84 161.173 168.84 161.423 168.848C161.639 168.856 161.739 168.865 161.739 168.865Z" fill="white"/>
<path d="M120.142 203.163C120.142 203.163 119.909 203.204 119.46 203.271C118.968 203.337 118.319 203.429 117.495 203.545C116.645 203.67 115.596 203.812 114.381 203.895C113.165 203.978 111.775 204.153 110.234 204.178C108.694 204.227 107.012 204.319 105.197 204.286C104.29 204.277 103.357 204.294 102.391 204.269C101.425 204.236 100.435 204.203 99.4188 204.169C95.3474 204.003 90.8846 203.695 86.2054 203.287C81.5262 202.896 77.0717 202.489 73.0086 202.214C68.9455 201.965 65.2904 201.79 62.2098 201.832C61.4438 201.84 60.7111 201.84 60.0201 201.848C59.329 201.882 58.6796 201.915 58.0634 201.948C56.8395 201.998 55.7904 202.056 54.9412 202.164C54.1169 202.248 53.4592 202.314 52.9679 202.356C52.5183 202.397 52.2769 202.414 52.2769 202.414C52.2769 202.414 52.51 202.381 52.9596 202.322C53.4508 202.264 54.1086 202.189 54.9245 202.098C55.7821 201.981 56.8312 201.915 58.0551 201.857C58.6712 201.823 59.3207 201.782 60.0117 201.748C60.7028 201.74 61.4355 201.732 62.2098 201.724C65.2904 201.665 68.9539 201.823 73.017 202.065C77.0801 202.322 81.5345 202.73 86.2137 203.121C90.8929 203.529 95.3557 203.845 99.4188 204.019C100.435 204.053 101.425 204.094 102.391 204.128C103.357 204.153 104.29 204.144 105.197 204.153C107.004 204.186 108.686 204.111 110.226 204.069C111.766 204.053 113.148 203.886 114.364 203.812C115.588 203.745 116.629 203.612 117.478 203.495C118.302 203.396 118.952 203.312 119.443 203.254C119.909 203.179 120.142 203.163 120.142 203.163Z" fill="white"/>
<path d="M169.157 193.397C169.157 193.397 169.033 193.422 168.791 193.447C168.5 193.48 168.15 193.513 167.734 193.555C166.81 193.654 165.477 193.763 163.821 193.879C160.515 194.104 155.936 194.27 150.882 194.137C145.828 194.004 141.257 193.596 137.968 193.197C136.328 192.997 134.996 192.814 134.08 192.673C133.664 192.606 133.322 192.556 133.031 192.507C132.789 192.465 132.665 192.432 132.665 192.432C132.665 192.432 132.789 192.44 133.039 192.465C133.331 192.498 133.68 192.548 134.097 192.598C135.012 192.723 136.345 192.889 137.993 193.072C141.282 193.438 145.845 193.821 150.89 193.962C155.936 194.095 160.515 193.946 163.821 193.754C165.477 193.654 166.81 193.563 167.734 193.488C168.15 193.455 168.5 193.43 168.799 193.405C169.033 193.397 169.157 193.397 169.157 193.397Z" fill="white"/>
<path d="M169.749 223.626C169.749 223.626 169.332 223.61 168.533 223.552C167.734 223.51 166.568 223.385 165.044 223.344C162.014 223.194 157.626 223.152 152.206 223.427C146.785 223.685 140.358 224.334 133.256 225.265C126.145 226.189 118.352 227.412 110.143 228.468C101.933 229.508 94.0567 230.182 86.8796 230.24C79.7026 230.306 73.2333 229.799 67.888 228.867C62.5344 227.952 58.2964 226.754 55.4406 225.731C54.7162 225.507 54.0835 225.265 53.5423 225.041C53.0094 224.833 52.5515 224.65 52.1685 224.5C51.4275 224.209 51.0361 224.042 51.0361 224.042C51.0361 224.042 51.4358 224.184 52.1768 224.467C52.5598 224.608 53.0177 224.791 53.5589 224.991C54.1001 225.207 54.7329 225.44 55.4572 225.665C58.3131 226.671 62.5593 227.844 67.9046 228.743C73.2499 229.658 79.7109 230.148 86.8713 230.082C94.04 230.015 101.908 229.341 110.118 228.302C118.327 227.245 126.12 226.031 133.231 225.116C140.341 224.192 146.777 223.552 152.197 223.31C157.618 223.061 162.014 223.111 165.044 223.285C168.083 223.443 169.749 223.626 169.749 223.626Z" fill="white"/>
<path d="M123.972 254.68C123.972 254.68 119.967 255.362 113.44 256.061C110.176 256.419 106.279 256.735 101.95 256.985C97.6203 257.209 92.8494 257.342 87.8372 257.317C82.8332 257.276 78.0624 257.068 73.7329 256.777C69.4034 256.469 65.5151 256.095 62.2596 255.695C55.7487 254.905 51.7522 254.165 51.7522 254.165C51.7522 254.165 52.002 254.189 52.4849 254.256C53.0011 254.331 53.7005 254.431 54.5747 254.564C55.4823 254.705 56.5896 254.863 57.8801 255.03C59.1707 255.196 60.6444 255.404 62.2763 255.57C65.5318 255.961 69.42 256.319 73.7495 256.619C78.0791 256.893 82.8416 257.093 87.8455 257.143C92.8494 257.168 97.6119 257.035 101.941 256.818C106.271 256.577 110.168 256.278 113.423 255.936C115.055 255.787 116.529 255.604 117.819 255.454C119.118 255.313 120.225 255.163 121.133 255.038C122.015 254.922 122.715 254.83 123.231 254.764C123.714 254.705 123.972 254.68 123.972 254.68Z" fill="white"/>
<path d="M169.249 248.724C169.249 248.724 169.099 248.782 168.808 248.874C168.466 248.974 168.042 249.107 167.526 249.257C166.41 249.589 164.795 250.047 162.796 250.588C158.783 251.661 153.205 252.992 146.969 254.14C140.732 255.279 135.037 256.011 130.908 256.427C128.843 256.635 127.169 256.785 126.012 256.86C125.471 256.893 125.03 256.926 124.68 256.951C124.372 256.968 124.214 256.976 124.214 256.976C124.214 256.976 124.372 256.951 124.68 256.918C125.03 256.885 125.471 256.843 126.012 256.793C127.169 256.693 128.843 256.527 130.899 256.302C135.021 255.853 140.707 255.105 146.944 253.965C153.172 252.825 158.75 251.511 162.771 250.471C164.778 249.947 166.402 249.514 167.517 249.198C168.042 249.057 168.466 248.94 168.808 248.841C169.091 248.757 169.249 248.724 169.249 248.724Z" fill="white"/>
<path d="M92.2083 289.37C92.2083 289.37 89.7521 289.794 85.7307 290.01C83.7241 290.127 81.3179 290.135 78.6619 290.018C76.0059 289.877 73.0834 289.594 70.0528 289.095C67.0221 288.579 64.1746 287.897 61.6102 287.165C59.0541 286.408 56.7894 285.618 54.9327 284.861C51.1944 283.355 49.0129 282.149 49.0129 282.149C49.0129 282.149 49.1545 282.207 49.4292 282.332C49.7456 282.473 50.1286 282.656 50.6032 282.881C51.1111 283.122 51.7355 283.413 52.4682 283.721C53.2092 284.029 54.0335 284.412 54.9744 284.753C56.8394 285.501 59.1041 286.275 61.6518 287.024C64.2079 287.747 67.0554 288.421 70.0778 288.937C73.1001 289.436 76.0142 289.719 78.6619 289.869C81.3179 289.994 83.7075 289.994 85.714 289.902C86.7215 289.885 87.6207 289.794 88.42 289.744C89.2193 289.694 89.902 289.627 90.4599 289.561C90.9761 289.511 91.4007 289.461 91.7504 289.428C92.0501 289.37 92.2083 289.37 92.2083 289.37Z" fill="white"/>
<path d="M172.305 287.249C172.305 287.249 172.021 287.307 171.48 287.39C170.897 287.481 170.107 287.615 169.099 287.773C167.034 288.105 164.037 288.555 160.332 289.087C152.922 290.143 142.656 291.458 131.291 292.589C119.917 293.712 109.601 294.444 102.125 294.852C98.3862 295.06 95.3638 295.21 93.274 295.284C92.2499 295.326 91.4506 295.351 90.8678 295.376C90.3183 295.393 90.0269 295.393 90.0269 295.393C90.0269 295.393 90.3183 295.368 90.8678 295.334C91.4506 295.301 92.2582 295.259 93.274 295.21C95.3971 295.093 98.4112 294.927 102.125 294.719C109.593 294.27 119.909 293.529 131.282 292.406C142.647 291.275 152.905 289.985 160.323 288.954C164.004 288.43 166.993 287.997 169.099 287.698C170.107 287.548 170.906 287.432 171.489 287.348C172.013 287.282 172.305 287.249 172.305 287.249Z" fill="white"/>
<path d="M176.668 317.886C176.668 317.886 174.844 318.26 171.53 318.809C168.217 319.35 163.388 320.024 157.401 320.523C151.406 321.022 144.246 321.297 136.295 321.039C128.343 320.781 119.643 319.899 110.542 318.784C101.434 317.67 92.7663 316.547 84.8483 315.923C76.9302 315.282 69.7615 315.158 63.7668 315.457C57.7637 315.765 52.943 316.447 49.6375 317.071C47.989 317.387 46.7151 317.653 45.8492 317.861C44.9833 318.061 44.5337 318.152 44.5337 318.152C44.5337 318.152 44.9833 318.036 45.8409 317.828C46.6984 317.603 47.9723 317.329 49.6209 317.004C52.918 316.355 57.7471 315.657 63.7501 315.332C69.7532 315.024 76.9302 315.133 84.8566 315.765C92.783 316.372 101.459 317.495 110.559 318.61C119.659 319.724 128.352 320.615 136.295 320.881C144.238 321.147 151.398 320.881 157.385 320.407C163.371 319.924 168.2 319.267 171.514 318.751C173.171 318.485 174.461 318.277 175.335 318.119C176.21 317.953 176.668 317.886 176.668 317.886Z" fill="white"/>
<path d="M201.088 146.953C201.088 146.953 200.846 147.61 200.305 148.767C199.772 149.915 198.873 151.528 197.582 153.4C196.3 155.28 194.585 157.376 192.57 159.598C190.555 161.827 188.241 164.173 185.893 166.718C183.545 169.264 181.463 171.826 179.815 174.33C178.175 176.834 176.959 179.263 176.235 181.409C175.502 183.547 175.177 185.369 175.077 186.633C174.994 187.257 175.019 187.756 174.994 188.089C174.977 188.422 174.961 188.597 174.961 188.597C174.961 188.597 174.927 187.89 175.011 186.625C175.086 185.361 175.394 183.531 176.118 181.368C176.826 179.205 178.041 176.759 179.682 174.239C181.33 171.718 183.412 169.147 185.76 166.602C188.116 164.056 190.43 161.711 192.445 159.498C194.469 157.285 196.184 155.197 197.474 153.334C198.773 151.479 199.681 149.881 200.23 148.733C200.53 148.176 200.705 147.71 200.855 147.411C201.004 147.111 201.088 146.953 201.088 146.953Z" fill="white"/>
<path d="M162.738 161.286C162.738 161.286 162.83 161.211 163.021 161.078C163.254 160.92 163.529 160.737 163.845 160.512C164.57 160.038 165.594 159.298 166.826 158.358C168.067 157.418 169.482 156.228 170.989 154.831C172.488 153.425 174.07 151.811 175.61 150.006C177.142 148.192 178.491 146.379 179.648 144.682C180.781 142.968 181.738 141.388 182.471 140.015C183.212 138.651 183.77 137.519 184.128 136.729C184.294 136.371 184.436 136.08 184.552 135.822C184.652 135.614 184.71 135.506 184.71 135.506C184.71 135.506 184.028 137.312 182.579 140.065C181.863 141.446 180.914 143.043 179.781 144.765C178.632 146.47 177.284 148.301 175.743 150.114C174.195 151.919 172.604 153.533 171.097 154.939C169.574 156.328 168.15 157.518 166.901 158.441C164.42 160.329 162.738 161.286 162.738 161.286Z" fill="white"/>
<path d="M103.24 200.185C103.24 200.176 103.307 200.143 103.44 200.093C103.599 200.035 103.798 199.96 104.04 199.86C104.581 199.677 105.339 199.344 106.313 198.895C108.228 197.947 110.909 196.316 113.681 193.663C116.471 191.034 119.343 187.449 122.116 183.206C124.905 178.964 127.694 174.122 130.333 168.898C135.629 158.433 139.384 148.475 142.006 141.263C143.322 137.653 144.338 134.708 145.054 132.686C145.403 131.697 145.678 130.915 145.878 130.349C145.97 130.099 146.045 129.9 146.103 129.742C146.153 129.609 146.186 129.542 146.194 129.542C146.203 129.542 146.186 129.617 146.144 129.758C146.094 129.916 146.036 130.124 145.961 130.374C145.778 130.94 145.528 131.73 145.212 132.736C144.546 134.783 143.572 137.736 142.29 141.363C139.733 148.609 136.02 158.599 130.708 169.089C128.052 174.33 125.246 179.18 122.44 183.422C119.634 187.673 116.729 191.267 113.881 193.879C111.067 196.533 108.328 198.138 106.379 199.045C105.389 199.478 104.614 199.794 104.065 199.943C103.815 200.027 103.615 200.085 103.449 200.135C103.307 200.176 103.24 200.193 103.24 200.185Z" fill="#385A65"/>
<path d="M101.842 217.787C101.833 217.778 101.991 217.654 102.3 217.437C102.641 217.204 103.091 216.897 103.64 216.506C104.806 215.69 106.479 214.509 108.486 212.962C112.524 209.901 117.828 205.309 123.531 200.076C126.387 197.464 129.126 194.993 131.499 192.631C133.872 190.268 135.862 187.997 137.369 185.968C138.892 183.946 139.925 182.174 140.583 180.918C140.932 180.302 141.149 179.795 141.324 179.462C141.49 179.13 141.582 178.955 141.598 178.963C141.615 178.971 141.54 179.155 141.399 179.496C141.249 179.837 141.057 180.361 140.732 180.985C140.116 182.266 139.109 184.071 137.61 186.134C136.12 188.197 134.138 190.51 131.774 192.889C129.409 195.285 126.67 197.764 123.814 200.376C118.111 205.616 112.765 210.175 108.669 213.195C106.629 214.709 104.922 215.865 103.732 216.639C103.132 217.021 102.658 217.304 102.341 217.504C102.025 217.703 101.85 217.803 101.842 217.787Z" fill="#385A65"/>
<path d="M79.378 306.723C79.3696 306.714 79.4029 306.656 79.4779 306.531C79.5611 306.39 79.6694 306.215 79.8026 305.999C80.094 305.541 80.5436 304.868 81.1431 304.019C82.3503 302.33 84.207 299.968 86.6549 297.181C91.5839 291.649 98.5028 284.096 106.121 275.744C113.756 267.417 120.667 259.88 125.696 254.398C128.202 251.703 130.233 249.506 131.665 247.959C132.356 247.227 132.906 246.645 133.306 246.22C133.48 246.037 133.622 245.896 133.739 245.78C133.838 245.68 133.888 245.638 133.897 245.638C133.905 245.647 133.863 245.705 133.772 245.813C133.664 245.938 133.53 246.096 133.372 246.287C132.989 246.72 132.456 247.319 131.79 248.076C130.383 249.639 128.385 251.869 125.92 254.597C120.916 260.104 114.039 267.666 106.438 276.027C98.8109 284.354 91.9086 291.89 86.888 297.381C84.4152 300.134 82.5252 302.463 81.2846 304.119C80.6685 304.951 80.1939 305.6 79.8775 306.049C79.7276 306.257 79.6111 306.423 79.5112 306.556C79.4279 306.673 79.3863 306.731 79.378 306.723Z" fill="#385A65"/>
<path d="M157.101 157.21C157.076 157.218 156.96 156.769 156.785 155.946C156.693 155.538 156.593 155.031 156.518 154.44C156.444 153.849 156.319 153.176 156.285 152.427C156.219 151.678 156.16 150.855 156.169 149.973C156.136 149.091 156.194 148.143 156.235 147.153C156.385 145.173 156.693 142.993 157.235 140.764C157.801 138.535 158.55 136.472 159.349 134.65C159.774 133.751 160.165 132.886 160.615 132.121C161.023 131.339 161.464 130.64 161.872 130.008C162.255 129.359 162.68 128.827 163.021 128.336C163.362 127.845 163.687 127.446 163.962 127.13C164.503 126.489 164.811 126.14 164.836 126.156C164.861 126.173 164.595 126.556 164.095 127.229C163.845 127.562 163.537 127.97 163.213 128.469C162.888 128.968 162.488 129.509 162.122 130.158C161.731 130.798 161.314 131.497 160.923 132.279C160.49 133.044 160.124 133.901 159.707 134.799C158.933 136.613 158.209 138.651 157.643 140.856C157.101 143.068 156.793 145.206 156.627 147.169C156.568 148.151 156.502 149.083 156.518 149.965C156.502 150.838 156.543 151.653 156.585 152.402C156.602 153.151 156.702 153.816 156.76 154.407C156.81 154.997 156.885 155.505 156.951 155.912C157.076 156.744 157.126 157.21 157.101 157.21Z" fill="#385A65"/>
<path d="M169.216 187.058C169.108 187.099 167.609 183.797 165.869 179.67C164.129 175.544 162.805 172.167 162.905 172.125C163.013 172.084 164.512 175.386 166.252 179.512C167.992 183.63 169.324 187.016 169.216 187.058Z" fill="#385A65"/>
<path d="M50.187 160.687C50.1204 160.72 49.4793 159.531 48.247 157.726C47.0231 155.921 45.1664 153.533 42.7852 151.22C40.3956 148.908 37.9561 147.128 36.116 145.963C34.276 144.79 33.0604 144.183 33.0937 144.116C33.102 144.091 33.4184 144.224 33.9762 144.482C34.5341 144.74 35.3251 145.156 36.2659 145.713C38.1642 146.82 40.662 148.592 43.0766 150.929C45.4828 153.267 47.3229 155.713 48.4968 157.576C49.0796 158.508 49.5209 159.273 49.7957 159.83C50.0704 160.363 50.212 160.671 50.187 160.687Z" fill="#385A65"/>
<path d="M82.8998 141.013C82.8831 141.013 82.8415 140.689 82.8915 140.156C82.9331 139.624 83.083 138.9 83.3994 138.152C83.8157 137.128 84.4484 136.38 84.7981 136.039L84.8481 135.997L84.8731 136.055C84.973 136.288 85.0146 136.413 84.998 136.421C84.9813 136.43 84.9147 136.313 84.7981 136.089L84.8647 136.097C84.5567 136.471 83.9739 137.22 83.5576 138.218C82.9248 139.691 82.9581 141.022 82.8998 141.013Z" fill="#385A65"/>
<path d="M93.9235 146.72C93.9068 146.728 93.8152 146.412 93.7486 145.888C93.6904 145.364 93.6737 144.632 93.7986 143.841C93.9235 143.051 94.1566 142.352 94.3731 141.878C94.5896 141.404 94.7727 141.13 94.7894 141.138C94.8394 141.163 94.2066 142.302 93.9651 143.866C93.7237 145.439 93.9818 146.72 93.9235 146.72Z" fill="#385A65"/>
<path d="M105.946 145.772C105.888 145.772 105.971 144.707 105.622 143.459C105.289 142.211 104.672 141.338 104.722 141.313C104.739 141.304 104.914 141.504 105.139 141.87C105.363 142.236 105.622 142.777 105.796 143.417C105.971 144.05 106.021 144.649 106.021 145.081C106.013 145.514 105.963 145.78 105.946 145.772Z" fill="#385A65"/>
<path d="M116.445 141.18C116.396 141.205 116.037 140.131 115.197 139.067C114.364 137.985 113.415 137.386 113.448 137.345C113.456 137.328 113.706 137.453 114.073 137.727C114.439 137.994 114.905 138.418 115.33 138.967C115.754 139.516 116.054 140.073 116.229 140.489C116.404 140.897 116.47 141.171 116.445 141.18Z" fill="#385A65"/>
<path d="M123.681 134.051C123.631 134.084 123.423 132.778 122.249 131.788C121.091 130.773 119.768 130.748 119.793 130.698C119.793 130.69 119.868 130.682 120.009 130.682C120.151 130.682 120.359 130.707 120.6 130.757C121.1 130.865 121.758 131.147 122.357 131.655C122.948 132.162 123.323 132.786 123.498 133.26C123.589 133.502 123.639 133.693 123.664 133.834C123.689 133.968 123.697 134.042 123.681 134.051Z" fill="#385A65"/>
<path d="M127.552 120.874C127.519 120.924 126.72 120.067 125.363 119.826C124.005 119.559 122.948 120.075 122.94 120.017C122.898 119.992 123.972 119.376 125.387 119.651C126.82 119.909 127.602 120.865 127.552 120.874Z" fill="#385A65"/>
<path d="M75.6728 132.137C75.6562 132.137 75.6895 131.854 75.8477 131.422C76.0059 130.998 76.3139 130.432 76.7885 129.916C77.2631 129.4 77.7959 129.051 78.2122 128.86C78.6285 128.668 78.9033 128.61 78.9116 128.627C78.9366 128.677 77.8376 129.026 76.9217 130.033C75.9809 131.039 75.7311 132.162 75.6728 132.137Z" fill="#385A65"/>
<path d="M73.0419 123.378C73.0253 123.369 73.1585 123.095 73.4582 122.704C73.7496 122.313 74.2325 121.822 74.8486 121.406C75.4731 120.99 76.1059 120.724 76.5721 120.599C77.0467 120.466 77.3464 120.45 77.3548 120.466C77.3714 120.524 76.1641 120.716 74.9486 121.548C73.7246 122.363 73.0919 123.411 73.0419 123.378Z" fill="#385A65"/>
<path d="M52.3517 174.496L52.2934 174.505C52.2684 174.554 52.2434 174.654 52.2268 174.779C52.1852 175.029 52.1352 175.411 52.0852 175.894C51.9937 176.867 51.8771 178.29 51.7605 180.036C51.5191 183.539 51.2443 188.38 50.9862 193.737C50.7281 199.095 50.5366 203.936 50.4117 207.455C50.3534 209.16 50.3118 210.558 50.2702 211.614C50.2535 212.064 50.2369 212.438 50.2202 212.746C50.2036 213.004 50.1952 213.137 50.1786 213.137C50.1619 213.137 50.1453 213.004 50.137 212.746C50.1286 212.438 50.1203 212.064 50.1037 211.614C50.087 210.633 50.0787 209.21 50.1037 207.455C50.1453 203.936 50.2868 199.086 50.5533 193.729C50.8114 188.372 51.1361 183.53 51.4525 180.028C51.6107 178.281 51.7689 176.867 51.9187 175.885C51.9937 175.403 52.0686 175.02 52.1352 174.771C52.1685 174.646 52.2018 174.546 52.2518 174.488C52.3434 174.405 52.36 174.513 52.3517 174.496Z" fill="#192E35"/>
<path d="M144.079 6.47453C137.136 4.35325 129.892 10.5673 122.765 9.1698C118.435 8.32129 115.171 4.86901 111.317 2.72278C105.555 -0.488247 97.4204 -1.01233 91.5339 1.9741C85.6557 4.9522 81.8674 8.14659 81.0598 14.6851C75.7061 11.6155 66.7807 18.3454 63.7417 24.8423C60.7027 31.3392 61.4603 38.0524 63.1921 45.0152C66.1645 57.0025 71.5182 68.3908 78.8534 78.3234C79.5028 79.2052 80.5436 80.1785 81.526 79.7126C82.2088 79.3882 82.4336 78.5397 82.5585 77.791C83.5826 71.4272 82.7749 64.9302 82.2254 58.5082C81.6759 52.0861 81.4012 45.4644 83.4327 39.3418C85.4642 33.2192 90.2517 27.6374 96.5878 26.3896C101.259 25.4662 106.121 26.9885 110.276 29.3178C114.43 31.647 118.086 34.7665 122.04 37.4202C125.995 40.0739 130.441 42.3116 135.204 42.5196C139.966 42.7276 145.07 40.4815 147.102 36.1724C149.133 31.8633 146.852 25.7407 142.189 24.7508C146.469 24.3598 150.216 20.658 150.649 16.3905C151.098 12.1063 148.192 7.73066 144.079 6.47453Z" fill="#192E35"/>
<path d="M122.665 118.07L121.991 104.294C121.991 104.294 135.704 100.751 139.564 90.4939C142.616 82.3851 143.064 67.9939 142.064 60.9939C141.064 53.9939 139.564 46.9941 135.745 39.242C127.776 23.0658 118.46 8.52926 100.726 9.14485L98.9608 9.20308C79.9941 10.975 70.9104 28.0616 73.2084 46.9535L77.5796 120.499C78.3123 132.878 88.9113 142.336 101.309 141.679C113.723 141.03 123.264 130.474 122.665 118.07Z" fill="#F8B9A0"/>
<path d="M122.007 104.278C122.007 104.278 110.492 105.617 97.9534 98.3467C97.9534 98.3467 104.04 111.282 122.215 109.003L122.007 104.278Z" fill="#F3976F"/>
<path d="M129.592 51.6118C129.692 52.9844 128.601 54.1989 127.169 54.332C125.737 54.4568 124.497 53.4502 124.397 52.0777C124.297 50.7051 125.379 49.4822 126.82 49.3574C128.252 49.2243 129.501 50.2392 129.592 51.6118Z" fill="#192E35"/>
<path d="M132.132 48.301C131.824 48.6503 129.792 47.2611 126.986 47.3693C124.18 47.4358 122.174 48.9498 121.857 48.6171C121.699 48.4673 122.007 47.8434 122.882 47.1613C123.739 46.4792 125.229 45.797 126.978 45.7388C128.726 45.6889 130.217 46.2795 131.091 46.9034C131.974 47.5356 132.29 48.1429 132.132 48.301Z" fill="#192E35"/>
<path d="M102.016 53.5338C102.116 54.9064 101.026 56.1209 99.5936 56.254C98.1615 56.3788 96.921 55.3722 96.821 53.9996C96.7211 52.627 97.8118 51.4042 99.2439 51.2794C100.684 51.1463 101.925 52.1529 102.016 53.5338Z" fill="#192E35"/>
<path d="M104.564 49.7902C104.256 50.1396 102.224 48.7504 99.4186 48.8585C96.6127 48.9251 94.6062 50.4391 94.2898 50.1063C94.1316 49.9566 94.4397 49.3327 95.3139 48.6506C96.1715 47.9684 97.6535 47.2863 99.402 47.2281C101.15 47.1781 102.641 47.7688 103.515 48.3927C104.398 49.0249 104.714 49.6322 104.564 49.7902Z" fill="#192E35"/>
<path d="M115.48 70.2294C115.463 70.0714 117.195 69.7054 120.009 69.2478C120.725 69.148 121.4 68.9816 121.499 68.4908C121.649 67.9667 121.325 67.2097 120.95 66.3862C120.217 64.6809 119.443 62.884 118.635 61.004C115.421 53.3424 113.065 47.0368 113.373 46.9037C113.681 46.779 116.545 52.8849 119.759 60.5464C120.534 62.4348 121.275 64.24 121.982 65.9619C122.282 66.7689 122.782 67.6756 122.457 68.757C122.282 69.2978 121.774 69.7054 121.316 69.8468C120.858 70.0048 120.459 70.0215 120.101 70.0548C117.262 70.3126 115.496 70.3875 115.48 70.2294Z" fill="#192E35"/>
<path d="M107.287 72.4589C107.745 72.4173 107.853 75.462 110.542 77.5333C113.223 79.613 116.454 79.1555 116.495 79.5797C116.545 79.7711 115.796 80.1953 114.422 80.2785C113.082 80.37 111.1 80.0123 109.46 78.7396C107.82 77.4668 107.079 75.7282 106.929 74.4804C106.762 73.2159 107.079 72.4506 107.287 72.4589Z" fill="#192E35"/>
<path d="M104.339 35.4072C104.09 36.1808 101.276 35.9146 97.9951 36.4304C94.7063 36.8796 92.0836 37.9361 91.6256 37.2622C91.4175 36.9378 91.8588 36.2058 92.9079 35.4321C93.9486 34.6585 95.6221 33.9015 97.5871 33.6103C99.552 33.3275 101.375 33.577 102.591 34.0179C103.815 34.4588 104.439 35.0411 104.339 35.4072Z" fill="#192E35"/>
<path d="M130.816 40.2155C130.341 40.8727 128.385 40.2737 126.062 40.3236C123.731 40.2904 121.782 40.9059 121.308 40.2488C121.1 39.9327 121.383 39.2838 122.224 38.6516C123.048 38.0193 124.455 37.4786 126.054 37.4703C127.652 37.462 129.059 37.9944 129.892 38.6183C130.733 39.2505 131.024 39.8994 130.816 40.2155Z" fill="#192E35"/>
<path d="M75.1733 60.4216C74.857 60.2968 62.4928 57.1523 63.3337 69.6138C64.1747 82.0752 76.5222 78.6646 76.5222 78.3069C76.5138 77.9491 75.1733 60.4216 75.1733 60.4216Z" fill="#F8B9A0"/>
<path d="M72.3924 73.8481C72.3341 73.8148 72.1842 74.0144 71.8262 74.2058C71.4765 74.3971 70.8687 74.5468 70.2026 74.3472C68.8538 73.9479 67.6049 71.9348 67.3884 69.697C67.2802 68.5657 67.4467 67.4676 67.7881 66.5442C68.1044 65.6042 68.654 64.9304 69.3117 64.764C69.9611 64.5644 70.4607 64.9304 70.6356 65.2715C70.8271 65.6125 70.7604 65.8621 70.8354 65.8787C70.8687 65.9037 71.0935 65.6541 70.9519 65.1467C70.8853 64.9054 70.7188 64.6143 70.4108 64.398C70.0944 64.1734 69.6448 64.0819 69.1868 64.1651C68.2293 64.2982 67.4217 65.2382 67.047 66.2531C66.6224 67.2763 66.406 68.5074 66.5225 69.7802C66.7723 72.2841 68.2127 74.5468 70.0527 74.9461C70.9436 75.1125 71.6597 74.8047 72.0177 74.4803C72.384 74.1475 72.434 73.8647 72.3924 73.8481Z" fill="#F3976F"/>
<path d="M139.475 35.274C131.507 37.6947 122.39 35.9811 115.854 30.8235C111.283 27.2131 107.661 21.9224 102.033 20.4084C98.2447 19.3852 94.1066 20.3419 90.7429 22.355C87.3792 24.3681 84.6982 27.3629 82.4169 30.5573C86.2718 39.7079 84.2653 50.1479 82.2004 59.8558C81.9756 60.9289 81.6925 62.0853 80.8433 62.784C79.4029 63.9736 77.1632 63.1584 75.831 61.8606C73.6912 59.781 72.792 56.7613 72.1592 53.8414C70.7272 47.1947 70.3109 40.2735 71.5681 33.6019C72.8253 26.922 75.8144 20.4916 80.5602 15.6252C86.4966 9.54416 94.9975 6.20003 103.49 6.03366C111.991 5.86728 120.425 8.7622 127.386 13.637C130.616 15.8997 133.614 18.6615 135.362 22.1969" fill="#192E35"/>
<path d="M149.483 10.6838C149.483 10.6838 149.566 11.0664 149.408 11.7735C149.25 12.464 148.8 13.4955 147.751 14.4106C146.719 15.3256 145.079 15.9745 143.139 16.1325C142.173 16.2074 141.132 16.2157 140.033 16.0494C138.942 15.8747 137.777 15.5003 136.803 14.6851C135.853 13.8948 135.062 12.6553 135.121 11.2162C135.162 9.76039 136.295 8.48763 137.66 7.93859C138.351 7.64744 139.117 7.50602 139.9 7.57257C140.682 7.63912 141.457 7.96355 142.081 8.46267C143.363 9.46092 144.038 11.108 144.096 12.7635C144.171 14.4438 143.463 16.1409 142.289 17.4136C141.115 18.6947 139.55 19.6098 137.852 20.1338C134.421 21.207 130.591 20.6829 127.144 19.3519C123.656 18.0292 120.592 16.0494 117.711 14.1194C114.83 12.1978 112.033 10.351 109.152 9.06994C106.279 7.7639 103.29 7.11504 100.493 7.28141C97.7036 7.44779 95.1724 8.32125 93.0909 9.46092C88.8863 11.7902 86.4801 15.0345 85.073 17.2722C84.3569 18.4119 83.8907 19.3436 83.5826 19.9758C83.2746 20.608 83.1164 20.9491 83.0914 20.9408C83.0831 20.9324 83.108 20.8493 83.1747 20.6746C83.2413 20.4999 83.3245 20.2503 83.4744 19.9259C83.7491 19.2687 84.1904 18.312 84.8732 17.1474C86.2386 14.8515 88.6115 11.5073 92.8911 9.07826C95.0143 7.88868 97.5953 6.9653 100.476 6.77397C103.357 6.57432 106.454 7.2315 109.393 8.55418C112.349 9.8519 115.172 11.707 118.061 13.6203C120.941 15.5419 123.964 17.4885 127.377 18.7779C130.75 20.0839 134.43 20.5747 137.693 19.5599C139.3 19.0607 140.782 18.2039 141.873 17.0143C142.964 15.8331 143.605 14.3107 143.547 12.7801C143.505 11.2661 142.889 9.77703 141.765 8.89524C140.674 7.96355 139.117 7.897 137.885 8.42108C136.644 8.91188 135.67 10.0183 135.629 11.2494C135.562 12.4806 136.253 13.6203 137.119 14.3606C138.001 15.1093 139.092 15.4837 140.133 15.6667C141.182 15.8414 142.206 15.8497 143.147 15.7915C145.029 15.675 146.619 15.0844 147.635 14.2359C148.659 13.3874 149.133 12.4224 149.325 11.7569C149.483 11.0664 149.441 10.6838 149.483 10.6838Z" fill="#385A65"/>
<path d="M61.9017 35.6565C61.9434 35.5234 63.3255 36.322 65.7483 36.5133C66.9473 36.5965 68.4044 36.4551 69.9197 35.931C71.435 35.4318 73.017 34.575 74.524 33.5185C77.538 31.339 79.1699 28.2029 79.8277 25.8903C80.5104 23.5444 80.4021 21.9888 80.5187 21.9971C80.552 21.9971 80.6103 22.3798 80.6186 23.0785C80.6186 23.7773 80.5437 24.7922 80.244 26.0067C79.6778 28.4192 78.0376 31.73 74.882 34.0177C73.3167 35.1241 71.6848 35.9809 70.0862 36.4717C68.4959 36.9874 66.9556 37.0873 65.7067 36.9459C64.4495 36.7961 63.4754 36.4634 62.8426 36.1805C62.2098 35.8977 61.8851 35.6897 61.9017 35.6565Z" fill="#385A65"/>
<path d="M62.7677 44.6658C62.7844 44.5494 64.2498 44.8239 66.5977 44.6076C68.929 44.4079 72.1761 43.5678 75.1069 41.4881C78.0293 39.4001 79.886 36.605 80.8352 34.4671C81.8093 32.3208 82.0258 30.8401 82.1424 30.8651C82.1757 30.8734 82.159 31.2394 82.0425 31.9049C81.9259 32.5704 81.6844 33.5104 81.2348 34.6334C80.3689 36.8712 78.5039 39.816 75.4649 41.9789C72.4259 44.1417 69.0289 44.9403 66.631 45.0318C65.4237 45.0818 64.4496 45.0069 63.7835 44.8987C63.1174 44.8072 62.7594 44.7074 62.7677 44.6658Z" fill="#385A65"/>
<path d="M95.6554 62.0352C95.4888 62.0768 95.3223 61.9604 95.2724 61.7774C95.2307 61.5943 95.3307 61.4197 95.4972 61.3781C95.6637 61.3365 95.8302 61.4529 95.8802 61.6359C95.9218 61.819 95.8219 62.002 95.6554 62.0352Z" fill="#F3976F"/>
<path d="M100.976 60.6378C100.809 60.6794 100.634 60.538 100.584 60.33C100.534 60.1221 100.626 59.9224 100.793 59.8808C100.959 59.8392 101.134 59.9806 101.184 60.1886C101.234 60.3966 101.142 60.5962 100.976 60.6378Z" fill="#F3976F"/>
<path d="M104.581 60.4217C104.414 60.4467 104.24 60.247 104.198 59.9725C104.156 59.698 104.256 59.4484 104.423 59.4235C104.589 59.3985 104.764 59.5982 104.806 59.8727C104.856 60.1472 104.747 60.3885 104.581 60.4217Z" fill="#F3976F"/>
<path d="M98.4114 65.3047C98.2365 65.313 98.095 65.2298 98.095 65.1133C98.095 65.0052 98.2282 64.9137 98.3947 64.9054C98.5696 64.897 98.7111 64.9802 98.7111 65.0884C98.7111 65.2048 98.5779 65.3047 98.4114 65.3047Z" fill="#F3976F"/>
<path d="M103.29 63.9985C103.124 64.0151 102.966 63.882 102.941 63.6907C102.916 63.4994 103.032 63.3247 103.207 63.308C103.374 63.2914 103.532 63.4245 103.557 63.6158C103.573 63.7988 103.457 63.9735 103.29 63.9985Z" fill="#F3976F"/>
<path d="M128.776 60.0471C128.61 60.0887 128.443 59.9639 128.393 59.7809C128.352 59.5895 128.452 59.4065 128.618 59.3733C128.785 59.3317 128.951 59.4564 129.001 59.6395C129.043 59.8225 128.943 60.0055 128.776 60.0471Z" fill="#F3976F"/>
<path d="M132.423 59.5814C132.257 59.6064 132.09 59.4483 132.065 59.232C132.04 59.0157 132.148 58.8244 132.323 58.8078C132.49 58.7828 132.656 58.9409 132.681 59.1572C132.706 59.3735 132.59 59.5648 132.423 59.5814Z" fill="#F3976F"/>
<path d="M125.554 60.2466C125.387 60.2882 125.221 60.1967 125.188 60.0552C125.154 59.9055 125.263 59.7558 125.429 59.7225C125.596 59.6809 125.762 59.7724 125.795 59.9138C125.829 60.0552 125.721 60.2133 125.554 60.2466Z" fill="#F3976F"/>
<path d="M128.393 63.8071C128.235 63.882 128.043 63.7988 127.96 63.6158C127.877 63.4411 127.927 63.2332 128.085 63.1583C128.235 63.0834 128.435 63.1666 128.518 63.3496C128.601 63.5243 128.543 63.7323 128.393 63.8071Z" fill="#F3976F"/>
<path d="M131.491 63.0753C131.324 63.0337 131.216 62.8923 131.249 62.7509C131.282 62.6095 131.441 62.5263 131.607 62.5679C131.774 62.6095 131.882 62.7509 131.849 62.8923C131.815 63.0337 131.657 63.1169 131.491 63.0753Z" fill="#F3976F"/>
<path d="M125.304 270.386L125.105 251.894C125.105 251.894 112.757 234.799 117.628 216.256C117.628 216.256 125.679 210.599 147.268 213.919C147.268 213.919 174.37 187.54 210.696 194.245C247.022 200.95 250.403 232.577 250.744 241.187C251.094 249.797 251.011 266.518 238.513 282.864L237.672 299.086C237.672 299.086 234.692 305.2 226.074 304.784C217.448 304.368 217.94 303.095 217.94 303.095C217.94 303.095 207.132 311.822 206.65 314.109C206.167 316.397 204.485 325.023 204.485 325.023C204.485 325.023 200.738 330.131 192.629 330.722C188.799 331.005 185.643 329.981 183.37 328.825C181.189 327.71 179.523 325.789 178.782 323.451C177.758 320.207 175.119 314.733 168.6 311.73L163.005 310.266C163.005 310.266 160.748 312.312 152.897 313.161C145.045 314.001 145.012 311.223 145.012 311.223C145.012 311.223 132.798 314.043 123.623 302.08C116.362 292.614 112.432 275.585 125.304 270.386Z" fill="#F25E82"/>
<path d="M200.613 271.451C200.605 271.443 200.738 271.243 201.013 270.885C201.287 270.519 201.695 269.987 202.203 269.288C203.227 267.899 204.668 265.844 206.241 263.191C207.807 260.537 209.514 257.259 211.021 253.474C211.778 251.578 212.486 249.556 213.11 247.435C213.718 245.33 214.259 243.018 213.71 240.772C213.152 238.517 211.495 236.779 209.713 235.522C207.907 234.258 205.95 233.36 204.068 232.594C200.288 231.08 196.65 230.356 193.578 230.074C190.505 229.774 187.999 229.916 186.284 230.074C185.426 230.157 184.76 230.24 184.311 230.307C183.861 230.365 183.62 230.39 183.62 230.373C183.62 230.357 183.853 230.307 184.294 230.223C184.744 230.124 185.41 230.015 186.267 229.907C187.991 229.699 190.505 229.508 193.611 229.766C196.708 230.015 200.388 230.706 204.218 232.22C206.125 232.985 208.106 233.884 209.963 235.173C211.787 236.446 213.543 238.268 214.135 240.663C214.717 243.059 214.143 245.438 213.527 247.56C212.886 249.698 212.17 251.727 211.395 253.632C209.855 257.442 208.123 260.712 206.508 263.357C204.893 266.002 203.402 268.032 202.337 269.396C201.804 270.078 201.379 270.594 201.079 270.944C200.788 271.285 200.621 271.468 200.613 271.451Z" fill="#192E35"/>
<path d="M149.816 214.717C149.824 214.717 149.883 214.859 149.941 215.15C149.999 215.441 150.049 215.874 149.999 216.439C149.908 217.554 149.325 219.176 147.926 220.64C146.561 222.138 144.496 223.36 142.489 225.008C140.458 226.646 138.359 228.618 136.403 230.906C132.465 235.481 129.867 240.356 128.393 243.999C127.652 245.829 127.153 247.352 126.828 248.408C126.678 248.899 126.561 249.307 126.462 249.631C126.378 249.905 126.32 250.055 126.303 250.047C126.287 250.047 126.312 249.889 126.378 249.606C126.453 249.273 126.553 248.866 126.67 248.358C126.944 247.285 127.402 245.738 128.118 243.883C129.534 240.181 132.107 235.231 136.086 230.614C138.06 228.302 140.191 226.322 142.248 224.691C144.304 223.036 146.369 221.855 147.718 220.424C149.1 219.035 149.708 217.487 149.849 216.414C149.983 215.325 149.766 214.726 149.816 214.717Z" fill="#192E35"/>
<path d="M175.385 219.8L164.337 216.98L167.767 217.828C177.017 207.971 189.023 200.725 202.045 197.098L202.054 198.571C202.245 198.853 202.437 199.128 202.645 199.394C187.708 205.974 175.385 219.8 175.385 219.8ZM165.352 215.94C169.873 211.381 174.686 207.788 179.29 204.976C172.271 209.385 167.359 213.944 165.352 215.94ZM208.898 197.156C208.49 196.982 208.082 196.807 207.665 196.649L209.339 197.04C209.189 197.082 209.047 197.115 208.898 197.156Z" fill="#D54568"/>
<path d="M205.734 196.175C191.296 199.394 177.883 207.047 167.767 217.829L164.337 216.98C164.337 216.98 180.006 199.794 202.678 195.468L205.734 196.175Z" fill="#EA5160"/>
<path d="M167.767 217.829L164.337 216.98C164.337 216.98 179.715 200.126 202.037 195.593L202.045 197.09C189.023 200.725 177.017 207.971 167.767 217.829Z" fill="#4F1115"/>
<path d="M119.967 274.163C126.095 265.412 141.44 268.082 148.442 275.96C155.345 283.721 158.558 294.66 153.996 303.994C152.047 307.979 148.317 311.489 143.88 311.398C148.434 306.498 150.049 299.427 148.625 292.888C147.202 286.35 143.08 280.593 137.868 276.401C135.229 274.271 132.256 271.934 128.876 271.601C125.504 271.26 122.79 271.16 119.967 274.163Z" fill="#EA5160"/>
<path d="M144.063 311.389C144.004 311.389 143.946 311.389 143.888 311.389C147.368 307.645 149.133 302.638 149.133 297.572C149.133 295.999 148.967 294.427 148.634 292.888C147.21 286.35 143.089 280.593 137.877 276.4C135.237 274.271 132.265 271.933 128.884 271.6C127.977 271.509 127.119 271.434 126.287 271.434C124.039 271.434 122.032 271.975 119.967 274.163C122.632 270.361 127.028 268.714 131.732 268.714C137.852 268.714 144.479 271.509 148.442 275.959C153.13 281.234 156.119 287.98 156.119 294.685C156.119 297.846 155.453 300.999 153.996 303.985C152.222 307.621 148.95 310.865 145.02 311.331C144.712 311.372 144.387 311.389 144.063 311.389Z" fill="#D44568"/>
<path d="M198.274 265.146C197.341 265.146 196.425 264.572 196.117 263.54C193.453 254.747 188.924 246.52 182.904 239.566C182.071 239.15 181.555 238.101 181.722 237.153C181.93 235.98 182.929 235.065 184.053 234.658C184.852 234.358 185.701 234.283 186.559 234.283C186.9 234.283 187.242 234.3 187.583 234.316C191.363 234.516 195.11 235.256 198.682 236.496C202.195 237.719 205.842 239.765 207.033 243.284C208.065 246.329 206.983 249.64 205.909 252.668C204.443 256.794 202.811 261.144 199.981 264.372C199.506 264.896 198.882 265.146 198.274 265.146Z" fill="#D44568"/>
<path d="M127.619 245.197L127.419 244.906C123.648 239.074 121.666 232.103 121.816 225.157C121.849 223.685 122.024 222.096 123.056 221.039C124.031 220.041 125.471 219.808 126.903 219.808C127.303 219.808 127.702 219.825 128.085 219.85C132.981 220.158 137.86 220.848 142.647 221.896C143.022 221.979 143.447 222.104 143.597 222.462C143.738 222.795 143.763 223.252 143.647 223.618C143.18 223.959 142.706 224.317 142.24 224.691C141.89 224.974 141.532 225.257 141.182 225.556C137.011 228.676 133.622 233.01 131.058 237.718C129.775 239.948 128.801 242.061 128.11 243.883C127.927 244.34 127.769 244.781 127.619 245.197Z" fill="#D44568"/>
<path d="M127.71 245.322L127.619 245.189C127.76 244.773 127.927 244.332 128.102 243.874C128.793 242.052 129.767 239.94 131.049 237.71C129.709 240.189 128.593 242.768 127.71 245.322ZM141.174 225.556C141.532 225.257 141.881 224.966 142.231 224.691C142.706 224.309 143.18 223.959 143.638 223.618C143.572 223.834 143.447 224.026 143.263 224.134C142.556 224.575 141.856 225.049 141.174 225.556Z" fill="#101E23"/>
<path d="M118.136 216.922C118.169 216.922 118.144 217.371 118.077 218.178C118.002 218.985 117.936 220.15 117.877 221.589C117.769 224.467 117.869 228.46 118.61 232.794C118.993 234.957 119.501 236.987 120.051 238.809C120.617 240.622 121.208 242.236 121.774 243.559C122.332 244.881 122.823 245.946 123.189 246.661C123.548 247.385 123.731 247.793 123.706 247.809C123.681 247.826 123.448 247.443 123.04 246.745C122.623 246.046 122.09 244.998 121.491 243.683C120.883 242.369 120.259 240.755 119.668 238.925C119.093 237.095 118.569 235.049 118.186 232.861C117.436 228.485 117.395 224.459 117.578 221.564C117.669 220.116 117.786 218.952 117.911 218.153C118.027 217.355 118.111 216.914 118.136 216.922Z" fill="#FBFBFB"/>
<path d="M202.029 194.869C202.029 194.885 201.887 194.935 201.596 195.027C201.263 195.127 200.846 195.243 200.347 195.393C199.806 195.543 199.131 195.726 198.374 195.975C197.608 196.216 196.733 196.466 195.776 196.815C193.861 197.448 191.613 198.304 189.157 199.353C186.709 200.426 184.069 201.698 181.372 203.196C178.691 204.71 176.218 206.299 174.028 207.821C171.855 209.368 169.949 210.841 168.408 212.138C167.617 212.771 166.951 213.386 166.343 213.919C165.736 214.443 165.228 214.909 164.811 215.3C164.42 215.657 164.104 215.94 163.846 216.173C163.621 216.373 163.496 216.464 163.488 216.456C163.479 216.448 163.579 216.323 163.787 216.106C164.029 215.857 164.328 215.549 164.695 215.166C165.094 214.759 165.577 214.268 166.177 213.727C166.768 213.187 167.426 212.546 168.208 211.897C169.732 210.558 171.622 209.061 173.795 207.488C175.985 205.941 178.458 204.327 181.155 202.805C183.861 201.299 186.526 200.026 188.99 198.97C191.463 197.938 193.736 197.107 195.676 196.508C196.633 196.183 197.524 195.95 198.299 195.734C199.073 195.509 199.747 195.343 200.297 195.218C200.813 195.102 201.229 195.01 201.571 194.935C201.87 194.885 202.029 194.86 202.029 194.869Z" fill="#FBFBFB"/>
<path d="M211.737 238.825C211.67 238.9 210.413 237.619 207.998 236.08C206.808 235.29 205.284 234.516 203.552 233.759C201.812 233.019 199.822 232.395 197.699 231.912C193.436 230.956 189.431 230.972 186.592 231.247C183.745 231.538 182.021 232.012 181.996 231.92C181.988 231.887 182.413 231.762 183.195 231.563C183.969 231.346 185.127 231.13 186.559 230.939C189.415 230.581 193.469 230.515 197.791 231.488C199.947 231.979 201.954 232.619 203.71 233.385C205.459 234.167 206.983 234.99 208.165 235.814C208.465 236.013 208.748 236.213 209.014 236.396C209.264 236.596 209.505 236.787 209.739 236.97C210.196 237.319 210.571 237.635 210.854 237.927C211.445 238.492 211.762 238.808 211.737 238.825Z" fill="#FBFBFB"/>
<path d="M137.269 310.05C137.261 310.067 137.127 310.025 136.869 309.942C136.619 309.851 136.228 309.742 135.762 309.543C134.804 309.177 133.456 308.553 131.874 307.613C128.726 305.766 124.713 302.389 121.874 297.514C119.027 292.639 118.052 287.49 117.986 283.846C117.944 282.016 118.061 280.527 118.211 279.52C118.269 279.013 118.36 278.622 118.41 278.356C118.46 278.09 118.502 277.957 118.51 277.957C118.544 277.965 118.469 278.522 118.377 279.537C118.286 280.552 118.211 282.024 118.294 283.838C118.444 287.448 119.443 292.506 122.249 297.298C125.055 302.089 128.968 305.45 132.04 307.355C133.58 308.32 134.896 308.977 135.828 309.393C136.761 309.801 137.286 310.009 137.269 310.05Z" fill="#FBFBFB"/>
<path d="M139.3 300.392C140 300.309 140.707 299.984 141.124 299.585C139.309 299.144 137.76 297.721 137.169 295.941C136.986 295.392 136.902 294.818 136.902 294.244C136.902 292.955 137.344 291.657 138.176 290.667C138.126 290.659 138.068 290.65 137.993 290.65C137.976 290.65 137.96 290.65 137.943 290.65C138.085 290.634 138.226 290.625 138.368 290.625C138.742 290.625 139.109 290.692 139.458 290.825C140.874 291.358 141.923 292.614 142.447 294.036C142.964 295.459 142.839 297.097 142.106 298.42C141.515 299.46 140.474 300.333 139.3 300.392Z" fill="#AC3854"/>
<path d="M138.168 290.667C136.969 292.107 136.578 294.17 137.169 295.95C137.76 297.73 139.309 299.152 141.124 299.593C140.508 300.192 139.259 300.608 138.318 300.334C135.82 299.618 134.213 296.998 134.405 294.402C134.48 293.363 134.863 292.323 135.612 291.591C136.353 290.867 137.76 290.584 138.168 290.667Z" fill="#EA5160"/>
<path d="M138.951 300.417C138.734 300.417 138.518 300.392 138.318 300.334C135.953 299.66 134.396 297.281 134.388 294.835C134.388 294.694 134.396 294.552 134.405 294.411C134.48 293.371 134.863 292.331 135.612 291.599C136.27 290.959 137.444 290.659 137.985 290.659C138.06 290.659 138.118 290.667 138.168 290.676C137.344 291.666 136.894 292.963 136.894 294.253C136.894 294.827 136.986 295.401 137.161 295.95C137.752 297.73 139.3 299.153 141.115 299.593C140.641 300.059 139.767 300.417 138.951 300.417Z" fill="#D44568"/>
<path d="M127.028 295.326C127.71 295.251 128.393 294.943 128.793 294.544C127.036 294.12 125.546 292.747 124.98 291.034C124.805 290.501 124.721 289.952 124.721 289.395C124.721 288.147 125.146 286.899 125.945 285.942C125.895 285.934 125.837 285.926 125.771 285.926C125.754 285.926 125.737 285.926 125.721 285.926C125.854 285.909 125.995 285.901 126.129 285.901C126.487 285.901 126.845 285.959 127.178 286.092C128.543 286.608 129.559 287.823 130.058 289.187C130.558 290.559 130.433 292.14 129.725 293.421C129.176 294.436 128.16 295.276 127.028 295.326Z" fill="#AC3854"/>
<path d="M125.945 285.951C124.788 287.34 124.413 289.328 124.98 291.042C125.546 292.755 127.044 294.128 128.793 294.552C128.202 295.126 126.994 295.526 126.087 295.268C123.681 294.577 122.132 292.048 122.315 289.553C122.39 288.554 122.765 287.548 123.473 286.841C124.18 286.134 125.554 285.868 125.945 285.951Z" fill="#EA5160"/>
<path d="M126.703 295.351C126.495 295.351 126.287 295.326 126.087 295.268C123.806 294.619 122.299 292.315 122.299 289.96C122.299 289.819 122.307 289.686 122.315 289.553C122.39 288.554 122.765 287.548 123.473 286.841C124.105 286.217 125.238 285.934 125.762 285.934C125.829 285.934 125.887 285.942 125.937 285.951C125.138 286.907 124.713 288.155 124.713 289.403C124.713 289.96 124.796 290.509 124.971 291.042C125.537 292.755 127.036 294.128 128.785 294.552C128.327 295.001 127.486 295.351 126.703 295.351Z" fill="#D44568"/>
<path d="M158.775 263.157L158.891 263.107L158.95 263.074L158.775 263.157Z" fill="#192E35"/>
<path d="M165.061 265.802C164.628 264.754 163.929 263.764 162.905 263.265C162.247 262.949 161.306 262.633 160.357 262.675L160.282 262.683C159.824 262.708 159.316 262.849 158.883 263.107C157.043 263.989 155.703 265.919 155.544 267.974C155.353 270.586 157.001 273.189 159.374 274.288C160.174 274.654 161.073 274.87 161.93 274.679C162.796 274.479 163.521 273.872 164.07 273.173C165.702 271.135 166.052 268.207 165.061 265.802Z" fill="#192E35"/>
<path d="M133.039 255.105L133.139 255.055L133.189 255.03L133.039 255.105Z" fill="#192E35"/>
<path d="M138.484 257.392C138.11 256.486 137.502 255.629 136.619 255.196C136.053 254.922 135.229 254.647 134.413 254.68L134.346 254.689C133.947 254.714 133.506 254.839 133.139 255.055C131.541 255.82 130.383 257.484 130.25 259.272C130.084 261.535 131.507 263.789 133.572 264.738C134.263 265.062 135.046 265.245 135.787 265.071C136.536 264.896 137.161 264.372 137.644 263.765C139.042 262.018 139.342 259.472 138.484 257.392Z" fill="#192E35"/>
<path d="M140.166 271.277C140.166 271.26 140.35 271.302 140.683 271.385C141.024 271.46 141.507 271.618 142.131 271.826C143.372 272.275 145.12 273.082 147.027 274.479C148.934 275.877 150.965 277.89 152.622 280.552C154.287 283.197 155.528 286.475 156.102 290.035C156.66 293.604 156.569 297.073 155.986 300.151C155.411 303.229 154.154 305.874 152.53 307.621C150.924 309.385 149.117 310.258 147.851 310.616C146.569 310.982 145.828 310.89 145.828 310.89C145.82 310.832 146.569 310.857 147.801 310.449C149.034 310.059 150.757 309.16 152.297 307.413C153.846 305.683 155.045 303.096 155.586 300.068C156.136 297.048 156.219 293.604 155.669 290.102C155.103 286.591 153.896 283.372 152.281 280.76C150.674 278.131 148.692 276.126 146.835 274.721C144.979 273.306 143.272 272.466 142.065 271.975C140.857 271.501 140.158 271.318 140.166 271.277Z" fill="#192E35"/>
<path d="M132.198 261.435C132.157 261.469 131.94 261.286 131.715 260.895C131.491 260.504 131.291 259.896 131.291 259.206C131.291 258.515 131.482 257.9 131.707 257.509C131.924 257.118 132.14 256.935 132.182 256.968C132.29 257.035 131.707 257.941 131.724 259.206C131.715 260.462 132.307 261.369 132.198 261.435Z" fill="#FBFBFB"/>
<path d="M157.293 270.627C157.251 270.652 157.043 270.436 156.86 269.995C156.677 269.554 156.56 268.88 156.677 268.157C156.802 267.433 157.126 266.834 157.443 266.476C157.759 266.119 158.025 265.977 158.059 266.019C158.15 266.11 157.309 266.901 157.101 268.223C156.868 269.546 157.409 270.569 157.293 270.627Z" fill="#FBFBFB"/>
<path d="M173.096 314.592C173.054 314.659 172.047 313.96 170.281 313.078C168.525 312.18 165.994 311.181 163.121 310.25C160.257 309.318 157.634 308.519 155.769 307.854C154.837 307.521 154.087 307.238 153.571 307.022C153.063 306.806 152.78 306.673 152.797 306.648C152.822 306.589 153.979 306.989 155.861 307.571C157.751 308.162 160.374 308.902 163.254 309.842C166.135 310.782 168.683 311.839 170.415 312.812C170.856 313.045 171.239 313.278 171.572 313.494C171.913 313.694 172.196 313.885 172.413 314.06C172.871 314.376 173.112 314.567 173.096 314.592Z" fill="#192E35"/>
<path d="M134.13 247.16C133.897 247.16 133.697 247.11 133.514 247.011C132.49 246.445 132.515 244.049 133.938 240.73C134.638 239.075 135.728 237.228 137.16 235.339C138.609 233.468 140.408 231.563 142.531 229.832C144.662 228.11 146.894 226.738 149.017 225.706C151.157 224.691 153.188 224.001 154.953 223.652C156.111 223.419 157.143 223.311 158.017 223.311C159.816 223.311 160.956 223.768 161.189 224.517C161.556 225.681 159.965 227.27 157.468 229.242C156.21 230.223 154.745 231.346 153.13 232.553C151.531 233.784 149.791 235.115 148.001 236.562C146.219 238.026 144.562 239.457 143.03 240.763C141.515 242.094 140.116 243.309 138.901 244.332C136.877 246.021 135.237 247.16 134.13 247.16Z" fill="#F882AD"/>
<path d="M138.917 290.168C138.917 290.293 138.052 290.376 137.027 290.617C136.003 290.858 135.196 291.175 135.137 291.058C135.079 290.958 135.845 290.443 136.927 290.193C138.018 289.935 138.926 290.052 138.917 290.168Z" fill="#FBFBFB"/>
<path d="M126.279 285.585C126.262 285.709 125.463 285.659 124.522 285.884C123.581 286.092 122.882 286.483 122.807 286.383C122.732 286.3 123.389 285.701 124.422 285.46C125.463 285.218 126.312 285.476 126.279 285.585Z" fill="#FBFBFB"/>
<path d="M182.329 324.258C182.221 324.317 181.114 322.453 179.573 320.265C178.041 318.078 176.659 316.406 176.751 316.322C176.834 316.248 178.374 317.803 179.931 320.016C181.48 322.229 182.429 324.209 182.329 324.258Z" fill="#FBFBFB"/>
<path d="M132.739 236.961C132.848 237.036 131.216 239.44 129.784 242.701C128.343 245.954 127.677 248.782 127.544 248.749C127.494 248.741 127.586 248.017 127.877 246.869C128.168 245.729 128.66 244.174 129.384 242.518C130.108 240.871 130.924 239.449 131.574 238.467C132.223 237.485 132.698 236.928 132.739 236.961Z" fill="#FBFBFB"/>
<path d="M173.104 220.856C173.079 220.964 170.948 220.59 168.433 219.708C165.919 218.835 164.012 217.795 164.062 217.695C164.12 217.579 166.085 218.436 168.575 219.301C171.064 220.174 173.129 220.732 173.104 220.856Z" fill="#FBFBFB"/>
<path d="M262.426 201.799C257.955 191.483 213.202 154.864 213.202 154.864L187.983 187.59C188.341 187.099 229.138 211.922 229.138 211.922L241.169 266.718L243.234 276.476C243.234 276.476 237.822 281.192 238.047 286.175C238.197 289.503 230.512 296.665 230.512 296.665C228.697 295.16 227.531 294.735 226.615 294.91L218.498 302.505L220.429 304.269C222.586 306.232 225.416 307.28 228.331 307.188L242.21 306.764C244.192 306.706 246.065 305.882 247.447 304.46C251.718 300.068 260.727 290.268 260.902 285.535C261.002 282.889 261.027 280.369 261.019 278.339C261.027 278.347 266.897 212.114 262.426 201.799Z" fill="#F8B9A0"/>
<path d="M145.587 173.831C140.25 172.308 137.885 171.643 137.885 171.643L137.902 169.222C137.902 169.222 137.902 169.222 140.025 169.197C142.148 169.172 145.22 166.552 145.22 166.552L149.766 159.581L150.349 155.122C149.858 149.607 143.214 151.761 143.214 151.761C142.897 149.84 134.396 147.91 128.002 146.72C123.664 145.913 119.193 147.086 115.813 149.931L109.676 155.105L91.2843 171.194L43.8177 211.248L12.6201 202.048C12.6201 202.048 2.70377 232.378 1.08019 243.267C-2.02541 264.139 26.6827 278.048 39.3383 267.308C49.1796 258.956 106.579 197.206 116.088 186.958H116.162C122.016 186.209 131.882 180.311 131.882 180.311L136.953 180.91C136.953 180.91 150.432 183.48 152.023 180.843C153.288 178.764 150.924 175.353 145.587 173.831Z" fill="#F8B9A0"/>
<path d="M117.944 167.766C117.969 167.758 118.077 167.966 118.244 168.349C118.419 168.731 118.61 169.314 118.793 170.054C119.16 171.518 119.368 173.639 119.01 175.935C118.644 178.231 117.786 180.186 116.978 181.459C116.579 182.1 116.212 182.599 115.929 182.906C115.655 183.223 115.488 183.389 115.463 183.372C115.405 183.322 115.988 182.599 116.712 181.301C117.436 180.012 118.219 178.09 118.577 175.86C118.927 173.623 118.777 171.56 118.485 170.112C118.211 168.665 117.878 167.791 117.944 167.766Z" fill="#F3976F"/>
<path d="M121.383 150.788C121.383 150.771 121.558 150.738 121.907 150.688C122.249 150.638 122.757 150.571 123.414 150.513C124.722 150.405 126.645 150.239 129.001 150.58C130.175 150.754 131.449 151.087 132.723 151.686C133.988 152.285 135.262 153.158 136.27 154.398C137.269 155.629 138.002 157.251 137.977 159.015C137.968 159.888 137.735 160.787 137.319 161.585C136.903 162.392 136.328 163.108 135.687 163.748C134.413 165.004 133.014 166.036 131.607 166.951C130.891 167.384 130.217 167.849 129.417 168.149C129.026 168.29 128.61 168.39 128.169 168.357C127.736 168.34 127.286 168.124 127.02 167.774C126.736 167.425 126.653 166.984 126.662 166.585C126.67 166.186 126.753 165.803 126.878 165.445C127.119 164.738 127.461 164.098 127.852 163.524C128.643 162.376 129.667 161.511 130.716 160.953L130.766 161.244C128.41 160.795 126.487 160.429 125.088 160.163C124.455 160.038 123.947 159.93 123.548 159.847C123.198 159.772 123.015 159.722 123.015 159.705C123.015 159.689 123.206 159.705 123.564 159.755C123.964 159.813 124.48 159.897 125.121 159.988C126.52 160.221 128.46 160.537 130.825 160.928L131.266 161.003L130.874 161.219C129.875 161.768 128.91 162.609 128.16 163.723C127.786 164.272 127.477 164.896 127.244 165.562C127.036 166.202 126.936 167.001 127.344 167.525C127.761 168.066 128.585 168.032 129.293 167.758C130 167.492 130.691 167.026 131.391 166.593C132.773 165.695 134.155 164.663 135.387 163.44C136.636 162.209 137.56 160.654 137.56 158.998C137.594 157.351 136.911 155.82 135.97 154.639C135.021 153.45 133.805 152.593 132.581 152.002C131.349 151.403 130.117 151.07 128.968 150.871C126.662 150.497 124.747 150.613 123.439 150.671C122.823 150.713 122.315 150.738 121.924 150.763C121.566 150.796 121.383 150.804 121.383 150.788Z" fill="#F3976F"/>
<path d="M143.272 152.044C143.297 152.044 143.363 152.36 143.422 152.942C143.48 153.525 143.538 154.373 143.522 155.413C143.48 157.484 143.13 160.487 141.448 163.283C139.792 166.069 137.177 167.866 135.021 168.149C133.922 168.282 133.056 167.8 132.673 167.342C132.473 167.117 132.365 166.901 132.323 166.751C132.273 166.602 132.273 166.519 132.281 166.519C132.323 166.502 132.39 166.835 132.798 167.234C133.189 167.625 133.988 168.008 134.987 167.858C136.977 167.525 139.492 165.762 141.082 163.075C142.706 160.379 143.097 157.459 143.222 155.413C143.313 153.342 143.197 152.052 143.272 152.044Z" fill="#F3976F"/>
<path d="M131.491 175.802C131.441 175.744 131.874 175.37 132.39 174.629C132.898 173.897 133.464 172.749 133.589 171.394C133.722 170.038 133.397 168.798 133.031 167.983C132.673 167.159 132.323 166.702 132.373 166.66C132.406 166.627 132.856 167.018 133.306 167.85C133.755 168.673 134.155 169.979 134.013 171.435C133.872 172.891 133.222 174.097 132.623 174.812C132.032 175.545 131.524 175.844 131.491 175.802Z" fill="#F3976F"/>
<path d="M123.398 160.038C123.448 160.005 123.781 160.695 123.664 161.86C123.606 162.426 123.464 163.125 123.081 163.798C122.732 164.464 122.265 165.171 121.666 165.811C120.45 167.118 118.951 167.766 117.927 168.207C116.878 168.632 116.212 168.839 116.187 168.781C116.162 168.723 116.787 168.415 117.802 167.924C118.793 167.417 120.209 166.751 121.349 165.52C121.924 164.913 122.373 164.248 122.732 163.607C123.106 162.991 123.273 162.359 123.356 161.818C123.547 160.729 123.339 160.055 123.398 160.038Z" fill="#F3976F"/>
<path d="M158.808 162.492L135.387 175.245C135.387 175.245 147.918 178.373 159.258 190.36C169.541 201.232 173.512 213.012 173.512 213.012L196.85 197.497C196.842 197.514 184.311 169.114 158.808 162.492Z" fill="#385A65"/>
<path d="M139.517 174.771C140.549 174.18 146.935 170.537 158.434 163.973L158.483 163.94L158.542 163.957C161.622 164.763 164.861 166.07 168.108 167.9C171.339 169.738 174.569 172.092 177.65 174.904C180.739 177.707 183.695 180.952 186.459 184.537C189.215 188.131 191.829 192.041 194.061 196.316L194.152 196.483L193.994 196.591C193.603 196.849 193.186 197.132 192.77 197.415C186.459 201.632 180.373 205.692 174.769 209.435L174.561 209.576L174.469 209.344C171.68 202.539 168.033 196.649 164.095 191.966C160.157 187.266 155.969 183.747 152.272 181.21C148.559 178.664 145.328 177.084 143.08 176.119C141.948 175.644 141.065 175.312 140.458 175.095C140.166 174.996 139.941 174.921 139.767 174.862C139.575 174.796 139.508 174.771 139.517 174.771C139.583 174.788 139.65 174.796 139.758 174.821C139.933 174.871 140.166 174.937 140.458 175.02C141.065 175.212 141.965 175.52 143.105 175.985C145.378 176.909 148.642 178.464 152.389 180.993C156.127 183.514 160.357 187.024 164.337 191.733C168.316 196.433 172.005 202.339 174.827 209.186L174.519 209.094C180.114 205.351 186.201 201.283 192.512 197.057C192.928 196.774 193.353 196.499 193.736 196.233L193.661 196.508C191.455 192.282 188.848 188.372 186.109 184.795C183.362 181.218 180.431 177.99 177.367 175.195C174.311 172.392 171.114 170.054 167.917 168.207C164.703 166.386 161.497 165.071 158.45 164.256L158.567 164.239C146.994 170.645 140.549 174.197 139.517 174.771Z" fill="white"/>
<path d="M177.85 182.457C177.242 186.059 172.671 188.239 167.651 187.324C162.63 186.409 159.05 182.748 159.658 179.155C160.265 175.553 164.836 173.373 169.857 174.288C174.886 175.195 178.466 178.855 177.85 182.457Z" fill="#FBFBFB"/>
<path d="M166.943 183.622L166.135 184.512L165.203 183.605L165.985 182.74C165.261 181.925 164.728 180.976 164.57 180.211L166.143 179.529C166.327 180.328 166.81 181.218 167.434 181.833C168.075 182.449 168.491 182.507 168.733 182.233C169.54 181.343 165.852 178.98 167.75 176.892C168.55 176.002 169.849 175.852 171.256 176.917L172.055 176.027L172.987 176.934L172.196 177.807C172.729 178.414 173.154 179.13 173.345 179.812L171.797 180.536C171.539 179.737 171.156 179.096 170.681 178.639C170.04 178.015 169.599 178.007 169.341 178.29C168.558 179.155 172.23 181.509 170.348 183.58C169.59 184.445 168.325 184.612 166.943 183.622Z" fill="#385A65"/>
<path d="M144.862 171.768C144.862 171.768 148.834 173.781 145.02 176.726L139.184 174.463L144.862 171.768Z" fill="#FBFBFB"/>
<path d="M155.528 165.778C155.528 165.778 159.358 169.821 163.013 165.612L158.5 164.106L155.528 165.778Z" fill="#FBFBFB"/>
<path d="M172.23 203.953C172.23 203.953 177.384 199.777 180.398 205.409L174.636 209.26L172.23 203.953Z" fill="#FBFBFB"/>
<path d="M191.255 191.833C191.255 191.833 187.533 194.153 190.056 198.962L193.869 196.416L191.255 191.833Z" fill="#FBFBFB"/>
<path d="M177.45 205.326C177.45 206.216 176.751 206.94 175.893 206.94C175.036 206.94 174.336 206.216 174.336 205.326C174.336 204.436 175.036 203.712 175.893 203.712C176.751 203.712 177.45 204.436 177.45 205.326Z" fill="#385A65"/>
<path d="M193.078 195.393C193.078 196.283 192.379 197.006 191.521 197.006C190.663 197.006 189.964 196.283 189.964 195.393C189.964 194.503 190.663 193.779 191.521 193.779C192.379 193.779 193.078 194.503 193.078 195.393Z" fill="#385A65"/>
<path d="M160.898 165.62C160.898 166.194 160.099 166.66 159.116 166.66C158.134 166.66 157.334 166.194 157.334 165.62C157.334 165.046 158.134 164.581 159.116 164.581C160.099 164.581 160.898 165.046 160.898 165.62Z" fill="#385A65"/>
<path d="M145.678 174.247C145.678 175.012 144.904 175.628 143.946 175.628C142.989 175.628 142.214 175.004 142.214 174.247C142.214 173.481 142.989 172.866 143.946 172.866C144.904 172.866 145.678 173.49 145.678 174.247Z" fill="#385A65"/>
<path d="M160.041 173.381C160.041 174.263 158.941 174.979 157.584 174.979C156.227 174.979 155.128 174.263 155.128 173.373C155.128 172.491 156.227 171.776 157.584 171.776C158.941 171.784 160.041 172.5 160.041 173.381Z" fill="#FBFBFB"/>
<path d="M179.765 194.761C178.658 195.26 177.292 194.561 176.709 193.197C176.126 191.833 176.559 190.319 177.667 189.811C178.774 189.312 180.14 190.011 180.722 191.375C181.297 192.739 180.872 194.253 179.765 194.761Z" fill="#FBFBFB"/>
<path d="M145.212 166.552L154.82 176.659C154.82 176.659 158.667 181.051 161.256 178.98C163.846 176.9 160.207 173.015 159.441 171.892C158.675 170.761 149.25 159.339 149.25 159.339L145.212 166.552Z" fill="#F8B9A0"/>
<path d="M150.166 157.435C150.216 157.451 150.108 158.125 149.799 159.19C149.483 160.246 148.95 161.702 148.093 163.175C147.235 164.647 146.211 165.828 145.362 166.552C144.512 167.284 143.896 167.6 143.871 167.567C143.83 167.509 144.379 167.101 145.145 166.336C145.92 165.57 146.877 164.406 147.71 162.967C149.375 160.063 150.024 157.385 150.166 157.435Z" fill="#F3976F"/>
<path d="M60.7027 197.007C60.7111 197.015 60.5529 197.173 60.2531 197.448C59.9118 197.747 59.4705 198.146 58.9126 198.646C57.6971 199.702 55.9985 201.174 53.9087 202.98C49.6708 206.623 43.7843 211.614 37.2234 217.063C30.6625 222.512 24.6677 227.378 20.2633 230.822C18.0652 232.553 16.2585 233.909 14.9929 234.832C14.3851 235.265 13.8939 235.614 13.5275 235.872C13.1862 236.105 13.0113 236.221 13.003 236.213C12.9947 236.196 13.1612 236.055 13.4776 235.797C13.8356 235.514 14.3018 235.148 14.893 234.691C16.1252 233.726 17.8987 232.336 20.0718 230.573C24.4263 227.071 30.3877 222.171 36.9486 216.722C43.4762 211.273 49.3877 206.34 53.7089 202.73C55.832 200.966 57.5638 199.527 58.7961 198.504C59.3789 198.03 59.8452 197.656 60.1949 197.364C60.5196 197.123 60.6944 196.998 60.7027 197.007Z" fill="#F3976F"/>
</svg>
