<svg width="333" height="480" fill="none" xmlns="http://www.w3.org/2000/svg"><mask id="a" style="mask-type:alpha" maskUnits="userSpaceOnUse" x="153" y="118" width="91" height="67"><path d="m179.773 144.101 1.179-12.577 31.226-12.765 3.981.822v23.346c0 1.926.978 3.721 2.598 4.764l24.59 15.838-10.527 13.445c-8.642 2.291-26.244 6.925-27.514 7.141-1.269.215-29.11-1.856-42.871-2.919l-8.983-22.215 7.226-7.452 14.373-2.365a5.666 5.666 0 0 0 4.722-5.063Z" fill="#ADADAD"/></mask><g mask="url(#a)"><path d="m179.772 144.102 1.178-12.577 31.226-12.765 3.981.821v23.137a5.667 5.667 0 0 0 2.871 4.929l19.982 11.335-6.191 17.993c-8.643 2.291-26.245 6.925-27.514 7.141-1.27.215-29.11-1.856-42.872-2.919l-8.982-22.215 7.225-7.452 14.373-2.365a5.668 5.668 0 0 0 4.723-5.063Z" fill="#F8B9A0"/><path d="M178.649 142.327c15.435 4.921 37.839-2.999 47.113-7.574 2.432-5.463 7.037-16.647 6.002-17.676-1.294-1.287-8.479-4.256-11.217-4.718-2.189-.37-13.044-2.089-18.197-2.902l-31.447 9.601c-3.849 5.706-7.689 18.348 7.746 23.269Z" fill="#F2936E"/></g><mask id="b" style="mask-type:alpha" maskUnits="userSpaceOnUse" x="116" y="451" width="101" height="214"><path d="m170.253 662.683-54.176-201.404 45.507-10.059 37.062 16.845 17.568 180.349c0 .004-.001.008-.005.011l-8.183 6.698a41.057 41.057 0 0 1-37.767 7.566.009.009 0 0 1-.006-.006Z" fill="#C4C4C4"/></mask><mask id="c" style="mask-type:alpha" maskUnits="userSpaceOnUse" x="116" y="451" width="101" height="214"><path fill-rule="evenodd" clip-rule="evenodd" d="m161.588 451.204 37.075 16.851 17.568 180.357v.01a.03.03 0 0 1-.009.013l-8.183 6.698a41.075 41.075 0 0 1-37.781 7.569c-.008-.002-.013-.008-.015-.016l-54.181-201.419 45.526-10.063Zm-45.49 10.085 54.171 201.387a41.045 41.045 0 0 0 37.752-7.565l8.182-6.697-17.567-180.34-37.051-16.84-45.487 10.055Z" fill="#000"/></mask><g mask="url(#c)"><path d="m170.253 662.683-54.176-201.405 45.507-10.059 37.062 16.846 17.568 180.349c0 .004-.001.008-.005.011l-8.183 6.698a41.057 41.057 0 0 1-37.767 7.566.009.009 0 0 1-.006-.006Z" fill="#C4C4C4"/><path fill-rule="evenodd" clip-rule="evenodd" d="m161.588 451.205 37.075 16.85 17.568 180.358v.009a.042.042 0 0 1-.009.014l-8.183 6.698a41.072 41.072 0 0 1-37.781 7.568.02.02 0 0 1-.015-.015l-54.181-201.419 45.526-10.063Zm-45.49 10.084 54.171 201.387a41.045 41.045 0 0 0 37.752-7.564l8.182-6.698-17.567-180.34-37.051-16.84-45.487 10.055Z" fill="#000"/><path fill-rule="evenodd" clip-rule="evenodd" d="m202.428 659.619-26.106-192.235 2.639-.358 26.107 192.235-2.64.358Z" fill="#7C7C7C"/></g><mask id="d" style="mask-type:alpha" maskUnits="userSpaceOnUse" x="201" y="313" width="162" height="185"><path d="m265.684 495.767-40.47-41.19-3.499-3.5c-4.68-9.001-14.256-28.191-15.117-32.94-1.077-5.936-3.514-28.888-5.398-43.736-1.508-11.878 7.466-27.627 12.142-34.016 4.5-4.137 13.717-12.627 14.578-13.488.862-.861 14.754-9.36 21.592-13.502a132.279 132.279 0 0 1 30.616 50.317l13.389 40.116 44.005-27.259a93.09 93.09 0 0 1 19.706 26.596l5.13 10.382-86.743 82.392a7.084 7.084 0 0 1-9.931-.172Z" fill="#C4C4C4"/></mask><g mask="url(#d)"><path d="m265.683 495.767-40.469-41.19-3.5-3.5c-4.68-9.001-14.255-28.191-15.117-32.94-1.076-5.936-3.513-28.888-5.398-43.736-1.507-11.878 7.467-27.627 12.142-34.016 4.501-4.137 13.717-12.627 14.579-13.488.861-.861 14.753-9.36 21.591-13.502a132.28 132.28 0 0 1 30.617 50.317l13.389 40.116 44.005-27.259a93.127 93.127 0 0 1 19.706 26.596l5.13 10.382-86.743 82.392a7.085 7.085 0 0 1-9.932-.172Z" fill="#2F2D44"/><path fill-rule="evenodd" clip-rule="evenodd" d="M258.979 364.97a254.276 254.276 0 0 0-23.009-41.8l2.203-1.498a256.899 256.899 0 0 1 23.249 42.238l34.979 80.649 59.608-50.966 1.731 2.025-60.962 52.123a1.34 1.34 0 0 1-1.212.292 1.32 1.32 0 0 1-.892-.76l-35.695-82.303Zm36.065 80.749c-.063.053-.105.098-.125.119a1.32 1.32 0 0 1 .112-.107l.013-.012Zm1.989 1.718-.006.009.004-.007.002-.002Zm-.006.009a.014.014 0 0 1-.003.004l.002-.002.001-.002Z" fill="#4D4A6C"/></g><path d="m103.857 223.416 7.849-22.272c1.133.491 4.037 1.179 6.588 0 3.187-1.473 5.936 6.787 6.786 9.124.85 2.338 3.4 10.187 2.338 13.148-1.063 2.961 3.173 12.099 3.173 13.587 0 1.19 3.684 10.97 5.526 15.712l-5.526 15.06-.267.308c-9.784 11.262-28.707 39.657-35.379 26.314-.14-.279-2.038-3.137-4.344-6.582-5.742-8.576-10.41-17.827-13.833-27.563l-13.445-52.321v-5.071c0-1.119.33-2.213.952-3.143l1.173-1.761 6.786-6.786-4.02-3.039a5.667 5.667 0 0 1-2.23-4.04l-.312-3.663a5.667 5.667 0 0 0-2.384-4.153l-5.69-4.005-1.12-1.45a2.834 2.834 0 0 1 1.344-4.419l2.738-.917-1.797-7.496a.561.561 0 0 0-.05-.133l-6.198-11.674a3.047 3.047 0 0 1 5.064-3.338l10.963 13.631c.052.065.09.14.11.221l3.554 14.609a.56.56 0 0 0 .1.211l4.748 6.191a.567.567 0 0 1 .097.199l3.967 14.846c.018.07.05.135.092.192l22.647 30.473Z" fill="#FAA889"/><mask id="e" style="mask-type:alpha" maskUnits="userSpaceOnUse" x="151" y="218" width="160" height="94"><path d="M307.415 270.495c-5.965-19.708-12.368-38.239-12.368-38.239-2.522-7.211-3.027-4.143-5.044-5.412-2.522-1.587-11.065-8.302-15.415-8.302-3.479 0-9.742 1.322-12.439 1.983-4.675 3.027-14.423 9.611-16.01 11.731-1.586 2.119 3.287 9.771 5.923 13.332l6.729 13.658-21.268-2.689a92.339 92.339 0 0 1-47.735-20.839 9.236 9.236 0 0 0-9.177-1.568l-26.482 9.94a3.727 3.727 0 0 0 2.217 7.104l2.802-.704a.069.069 0 0 1 .08.041l3.933 9.858a7.083 7.083 0 0 0 8.084 4.298l12.001-2.608a5.67 5.67 0 0 1 4.438.884l8.784 6.105c1.308.909 2.936 1.218 4.511.978 2.956-.451 7.882-.904 10.775.449l9.804 7.403c24.389 18.417 53.195 30.183 83.548 33.754 4.817.567 8.274-21.45 2.309-41.157Z" fill="#ADADAD"/></mask><g mask="url(#e)"><path d="M307.414 270.488c-5.965-19.705-12.369-38.234-12.369-38.234-2.522-7.211-3.026-4.142-5.043-5.412-2.522-1.586-11.065-8.301-15.415-8.301-3.479 0-9.742 1.322-12.439 1.983-4.675 3.027-14.423 9.611-16.009 11.73-1.587 2.119 3.286 9.77 5.922 13.33l6.729 13.656-21.269-2.688a92.348 92.348 0 0 1-47.734-20.837 9.234 9.234 0 0 0-9.176-1.568l-26.482 9.94a3.726 3.726 0 0 0 2.217 7.103l2.802-.704a.069.069 0 0 1 .08.041l3.932 9.857a7.085 7.085 0 0 0 8.084 4.297l12.002-2.608a5.666 5.666 0 0 1 4.437.884l8.785 6.104c1.308.909 2.935 1.219 4.51.979 2.956-.451 7.882-.904 10.776.448l9.802 7.401c24.39 18.416 53.196 30.181 83.548 33.752 4.817.567 8.274-21.448 2.31-41.153Z" fill="#FAA889"/></g><mask id="f" style="mask-type:alpha" maskUnits="userSpaceOnUse" x="102" y="149" width="199" height="180"><path d="M236.336 156.332c-42.753 19.687-64.067 7.948-68.657-6.928l-27.104 4.184a21.822 21.822 0 0 0-14.207 8.581l-22.877 30.902a5.666 5.666 0 0 0 .903 7.705l12.876 10.853 18.545 21.96 9.847 24.042 14.989 59.944 69.323 11.009a36.624 36.624 0 0 0 25.542-18.546l.128-.237c.002-.002.001-.005 0-.008l-21.958-34.395 11.884-22.844c.571-1.098 2.193-.924 2.519.27l2.255 8.266a.016.016 0 0 0 .017.011A76.366 76.366 0 0 0 299.417 235l1.205-1.403a.017.017 0 0 0 .002-.018l-22.26-44.963a28.33 28.33 0 0 0-9.823-11.101l-32.205-21.183Z" fill="#C4C4C4"/></mask><g mask="url(#f)"><path d="M236.336 156.332c-42.753 19.687-64.067 7.948-68.657-6.928l-27.104 4.184a21.822 21.822 0 0 0-14.207 8.581l-22.877 30.902a5.666 5.666 0 0 0 .903 7.705l12.876 10.853 18.545 21.96 9.847 24.042 14.989 59.944 69.323 11.009a36.624 36.624 0 0 0 25.542-18.546l.128-.237c.002-.002.001-.005 0-.008l-21.958-34.395 13.488-25.927 3.174 11.632a76.398 76.398 0 0 0 49.078-26.113l1.196-1.393a.017.017 0 0 0 .002-.018l-22.26-44.963a28.33 28.33 0 0 0-9.823-11.101l-32.205-21.183Z" fill="#285CFF"/><path d="M247 164c-61.6 28.8-86 3.333-90.5-13v-10l60 8c35.833-7 92.1-13.8 30.5 15ZM243.707 229.797l3.468 19.674 3.117 11.773 26.649-2.748 24.043-19.679 4.845-14.933-28.009-42.843-19.183 22.795-14.113 21.908a5.665 5.665 0 0 0-.817 4.053ZM137.345 183.647l-1.869-30.744c1.993-5.19 5.308-15.893 2.621-17.185-3.357-1.616-12.198 2.734-20.67 8.217-8.473 5.483-24.709 45.096-25.077 46.088-.295.793 14.366 19.282 20.089 28.123l23.732-30.689a5.667 5.667 0 0 0 1.174-3.81Z" fill="#2E259E"/></g><mask id="g" style="mask-type:alpha" maskUnits="userSpaceOnUse" x="52" y="141" width="74" height="161"><path d="m77.151 177.905 3.967 14.846.092.192L99 215.5c0 1.19 27.04 41.12 26 49-.97 7.345-3.239 14.888-5 21.5-2.51 9.421-21.5 15.5-21.5 15.5l-29-35.5-11.901-56 14.635-18.83-4.02-3.039a5.667 5.667 0 0 1-2.23-4.04l-.312-3.663a5.667 5.667 0 0 0-2.384-4.153l-5.69-4.005-1.12-1.45a2.834 2.834 0 0 1 1.344-4.419l2.738-.917-1.797-7.496a.561.561 0 0 0-.05-.133l-6.198-11.674a3.047 3.047 0 0 1 5.064-3.338l10.963 13.631c.052.065.09.14.11.221l3.554 14.609.1.211 4.748 6.191a.567.567 0 0 1 .097.199Z" fill="#C4C4C4"/></mask><g mask="url(#g)"><path d="m103.857 223.416 7.849-22.272c1.133.491 4.037 1.179 6.588 0 3.187-1.473 5.936 6.787 6.786 9.124.85 2.338 3.4 10.187 2.338 13.148-1.063 2.961 3.173 12.099 3.173 13.587 0 1.19 3.684 10.97 5.526 15.712l-5.526 15.06-.267.308c-9.784 11.262-28.707 39.657-35.379 26.314-.14-.279-2.038-3.137-4.344-6.582-5.742-8.576-10.41-17.827-13.833-27.563l-13.445-52.321v-5.071c0-1.119.33-2.213.952-3.143l1.173-1.761 6.786-6.786-1.233-4.67c-1.282-.969-.864-2.898-1-4.5l-1.459-2.5c-.142-1.669-3.885-2.261-5.254-3.225l-5.69-4.005-1.12-1.45a2.834 2.834 0 0 1 1.344-4.419l2.738-.917-1.797-7.496a.561.561 0 0 0-.05-.133l-6.198-11.674a3.047 3.047 0 0 1 5.064-3.338l10.963 13.631c.052.065.09.14.11.221l3.554 14.609a.56.56 0 0 0 .1.211l4.748 6.191a.567.567 0 0 1 .097.199l3.967 14.846c.018.07.05.135.092.192l22.647 30.473Z" fill="#F8B9A0"/><path d="m62 165.5 10.5 6v-6l-7-20-12-6.5-4.5 5.5 13 21Z" fill="#FAA889"/></g><path d="m240.035 157.875-8.528-4.437a2.834 2.834 0 0 0-3.856 1.274l-26.875 52.855a5.667 5.667 0 0 1-6.775 2.933l-46.5-8.172c-3.305-1.026-4.927-4.748-3.429-7.867l28.033-43.426c.943-1.963-.589-4.212-2.76-4.053l-8.011.585a1.51 1.51 0 0 0-1.095.598l-40.675 54.163a41.614 41.614 0 0 0-3.868 43.755l14.125 34.669-2.139 17.979a256.726 256.726 0 0 0-30.807 131.73l.84 22.785c.002.025.016.048.039.059l3.791 1.85a154.742 154.742 0 0 0 133.55 1.062l29.54-13.844a.602.602 0 0 0 .321-.722l-43.937-142.92-3.539-10.608a31.206 31.206 0 0 1-1.603-9.874v-31.61c0-4.057.633-8.09 1.878-11.952l23.668-73.429a2.833 2.833 0 0 0-1.388-3.383Z" fill="#FFFEFF"/><path d="m127.683 298.731 2.139-17.979a109.214 109.214 0 0 0 69.728 7.174l17.107-3.901 20.543-8.062 3.23 11.887-19.75 10.881-24.102 6.672a96.553 96.553 0 0 1-68.895-6.672Z" fill="#292291"/><mask id="h" style="mask-type:alpha" maskUnits="userSpaceOnUse" x="143" y="213" width="60" height="119"><path d="m149.383 220.722-1.21 5.391-2.469 1.148a3.532 3.532 0 0 0 2.291 6.643l2.035-.475 1.568 1.463a5.11 5.11 0 0 0 4.604 1.251l2.518-.565a.104.104 0 0 1 .126.108l-.225 3.69a39.631 39.631 0 0 1-8.146 21.757.793.793 0 0 0 .629 1.276h2.463l.004-.002a51.06 51.06 0 0 0 10.798-22.567l1.207-5.99c.001-.008.014-.007.015.001l1.381 12.227c1.293 11.448-.341 23.551-8.878 31.288l-.179.163c-8.458 7.664-11.516 19.645-7.747 30.418l7.082 20.245a5.198 5.198 0 0 0 4.905 3.481 51.96 51.96 0 0 0 22.73-5.235l2.999-1.459 6.132-3.652 5.435-3.889a8.418 8.418 0 0 0 3.168-8.833l-5.072-20.137a352.786 352.786 0 0 0-20.011-57.757.352.352 0 0 1 .238-.486l6.043-1.493a1.39 1.39 0 0 0 1.032-1.086l.97-5.039a6.339 6.339 0 0 0-.663-4.242 8.559 8.559 0 0 0-9.448-4.229l-25.723 5.98a.804.804 0 0 0-.602.606Z" fill="#F3F3F3"/></mask><g mask="url(#h)"><path d="m181.222 212.854-25.855 6.011a9.598 9.598 0 0 0-7.194 7.248l-2.469 1.148a3.532 3.532 0 0 0 2.291 6.643l2.035-.475 1.568 1.463a5.11 5.11 0 0 0 4.604 1.251l2.518-.565a.104.104 0 0 1 .126.108l-.225 3.69a39.631 39.631 0 0 1-8.146 21.757.793.793 0 0 0 .629 1.276h2.463l.004-.002a51.06 51.06 0 0 0 10.798-22.567l1.207-5.99c.001-.008.014-.007.015.001l1.381 12.227c1.293 11.448-.341 23.551-8.878 31.288l-.179.163c-8.458 7.664-11.516 19.645-7.747 30.418l7.082 20.245a5.198 5.198 0 0 0 4.905 3.481 51.96 51.96 0 0 0 22.73-5.235l2.999-1.459 6.132-3.652 5.435-3.889a8.418 8.418 0 0 0 3.168-8.833l-5.072-20.137a352.786 352.786 0 0 0-20.011-57.757.352.352 0 0 1 .238-.486l6.043-1.493a1.39 1.39 0 0 0 1.032-1.086l.315-1.636a15.973 15.973 0 0 0-1.671-10.685l-1.053-1.926a1.105 1.105 0 0 0-1.218-.545Z" fill="#285CFF"/><path d="m184.631 239.799-18.846 5.322-5.621 20.142c-4.267.624-13.031 1.668-13.948.86-1.147-1.009-9.061-16.253-8.924-19.132.137-2.879-5.746-21.576-6.045-24.742-.24-2.532 9.398-7.678 14.246-9.934 13.046-2.734 39.425-8.201 40.571-8.201 1.147 0-.477 23.79-1.433 35.685Z" fill="#30314A"/><path d="M184.239 296.467c1.573-.017 2.939.375 4.098 1.178 1.151.779 1.98 1.94 2.488 3.483.719 2.184.419 4.151-.9 5.9-1.303 1.718-3.58 3.112-6.833 4.182l-12.89 4.243-8.203-24.927 12.178-4.008c3.039-1 5.557-1.184 7.554-.552 2.021.624 3.359 1.933 4.015 3.927.399 1.211.458 2.389.177 3.534-.258 1.137-.819 2.15-1.684 3.04Zm-15.078-3.483 1.934 5.875 5.733-1.887c1.425-.468 2.423-1.073 2.995-1.814.571-.741.697-1.598.377-2.571-.32-.973-.927-1.576-1.819-1.809-.9-.256-2.062-.15-3.486.319l-5.734 1.887Zm12.074 14.023c1.52-.5 2.577-1.125 3.173-1.873.619-.757.757-1.657.413-2.702-.679-2.065-2.55-2.594-5.613-1.586l-6.73 2.215 2.027 6.161 6.73-2.215Z" fill="#fff"/><path d="m184.427 256.5 5.71 1.565-15.945 58.176-5.71-1.565 15.945-58.176Z" fill="#285CFF"/><path d="m168.736 313.582 5.753 1.577-.738 2.693-5.753-1.577.738-2.693Z" fill="#fff"/><path d="m170.688 314.126 1.772.486-1.901 6.934-1.772-.486 1.901-6.934Z" fill="#fff"/></g><mask id="i" style="mask-type:alpha" maskUnits="userSpaceOnUse" x="151" y="218" width="160" height="94"><path d="M307.415 270.495c-5.965-19.708-12.368-38.239-12.368-38.239-2.522-7.211-3.027-4.143-5.044-5.412-2.522-1.587-11.065-8.302-15.415-8.302-3.479 0-9.742 1.322-12.439 1.983-4.675 3.027-14.423 9.611-16.01 11.731-1.586 2.119 3.287 9.771 5.923 13.332l6.729 13.658-21.268-2.689a92.339 92.339 0 0 1-47.735-20.839 9.236 9.236 0 0 0-9.177-1.568l-26.482 9.94a3.727 3.727 0 0 0 2.217 7.104l2.802-.704a.069.069 0 0 1 .08.041l3.933 9.858a7.083 7.083 0 0 0 8.084 4.298l12.001-2.608a5.67 5.67 0 0 1 4.438.884l8.784 6.105c1.308.909 2.936 1.218 4.511.978 2.956-.451 7.882-.904 10.775.449l9.804 7.403c24.389 18.417 53.195 30.183 83.548 33.754 4.817.567 8.274-21.45 2.309-41.157Z" fill="#F8B9A0"/></mask><g mask="url(#i)"><path d="m211.754 270.489 9.802 7.401c24.39 18.415 53.196 30.181 83.548 33.751 26.592 3.129-13.776-44.873-39.862-50.908l-6.452-1.492-21.269-2.688a92.348 92.348 0 0 1-47.734-20.837 9.234 9.234 0 0 0-9.176-1.568l-26.482 9.939a3.727 3.727 0 0 0 2.217 7.103l2.802-.703a.068.068 0 0 1 .08.04l3.932 9.858a7.085 7.085 0 0 0 8.084 4.297l12.002-2.608a5.667 5.667 0 0 1 4.437.884l8.785 6.104c1.308.909 2.935 1.218 4.51.978 2.956-.45 7.882-.903 10.776.449Z" fill="#F8B9A0"/></g><path fill-rule="evenodd" clip-rule="evenodd" d="M170.419 89.916c.436.151.667.627.517 1.063l-2.272 6.573c-.311.9-.115 1.896.513 2.612l.789.9a.836.836 0 0 1-1.256 1.103l-.79-.901a4.32 4.32 0 0 1-.836-4.26l2.271-6.573a.837.837 0 0 1 1.064-.517ZM180.535 105.413c.461.02.819.409.8.871-.066 1.561-.372 2.746-.913 3.59-.562.877-1.345 1.334-2.205 1.457-.821.118-1.651-.077-2.365-.367a8.207 8.207 0 0 1-1.917-1.125.834.834 0 1 1 1.03-1.316c.429.336.964.668 1.517.892.561.229 1.077.321 1.498.261.383-.055.737-.24 1.034-.704.319-.497.592-1.351.651-2.759a.836.836 0 0 1 .87-.8Z" fill="#000"/><path d="m199.192 84.355-11.621-15.932a8.433 8.433 0 0 0-10.746-2.49l-6.938 3.657a.014.014 0 0 1-.019-.006l-2.228-3.757a3.747 3.747 0 0 0-6.921 1.31l-1.144 7.035-1.09 5.345a81.8 81.8 0 0 0-1.02 26.455l1.139 9.146a37.65 37.65 0 0 1-1.254 15.32 37.626 37.626 0 0 0-1.544 10.667v11.667c0 .098-.131.13-.176.043l-6.069-11.804a14.536 14.536 0 0 1-.917-11.081 14.54 14.54 0 0 0-1.182-11.571l-.218-.388a15.557 15.557 0 0 1-1.868-9.706l.681-5.086a29.013 29.013 0 0 0-.663-11.102l-.254-.983a25.878 25.878 0 0 1 .945-15.858l.754-1.935a16.99 16.99 0 0 0 1.094-7.666l-.219-2.477A13.684 13.684 0 0 1 156.39 49.2l1.248-.485a10.63 10.63 0 0 0 6.048-6.027 10.63 10.63 0 0 1 11.306-6.654l1.698.227c2.281.306 4.602-.009 6.719-.91l1.986-.845a20.684 20.684 0 0 1 15.735-.192l5.67 2.252a23.179 23.179 0 0 0 6.835 1.573l.287.021a22.71 22.71 0 0 1 19.139 13.592l.18.413a20.515 20.515 0 0 0 4.74 6.746l1.906 1.797a16.204 16.204 0 0 1 4.465 16.244 16.223 16.223 0 0 0-.514 6.333l.494 4.225c.185 1.58.22 3.174.105 4.76l-.371 5.128a15.658 15.658 0 0 1-7.872 12.478l-.914.52a12.478 12.478 0 0 0-5.253 5.828l-.794 1.807a8.41 8.41 0 0 1-5.584 4.757 8.41 8.41 0 0 0-5.761 5.193l-1.826 4.882c-.014.039-.071.029-.071-.013v-15.075c0-2.02-2.102-3.353-3.929-2.492a2.756 2.756 0 0 0-1.524 3.052l.789 3.803a7.679 7.679 0 0 1-.759 5.206l-.584 1.083a9.031 9.031 0 0 0 .299 9.081 9.023 9.023 0 0 1 1.343 5.599l-.267 2.992a17.958 17.958 0 0 1-3.348 8.945l-1.838 2.535v-5.332c0-3.251-.884-6.441-2.556-9.228a17.933 17.933 0 0 1-2.023-13.569l.381-1.527c.811-3.25.523-6.677-.818-9.747a15.169 15.169 0 0 1-.24-11.57l.882-2.269a20.997 20.997 0 0 0-2.607-19.981Z" fill="#30314A"/><path d="M162.278 62.119a32.405 32.405 0 0 1 29.484-18.96c18.971 0 33.885 16.224 32.292 35.128l-2.081 24.693c-1.37 16.253-13.299 29.652-29.284 32.893C163.3 141.832 145.995 115.166 153 86c7.004-29.166 9.278-23.881 9.278-23.881Z" fill="#F8B9A0"/><path d="m239.66 50.125-3.821 1.658a15.163 15.163 0 0 1-12.043.012L209.667 45.7a24.036 24.036 0 0 1-6.707-4.34l-6.408-5.866a9.245 9.245 0 0 1 7.071-16.027l2.453.22a4.58 4.58 0 0 0 3.687-1.361 4.58 4.58 0 0 1 4.677-1.161l2.683.861c.82.264 1.673.41 2.533.434l1.086.031a16.778 16.778 0 0 1 13.826 8l1.883 3.071a9.288 9.288 0 0 0 3.764 3.452c2.844 1.422 4.767 4.242 5.09 7.405.419 4.104-1.861 8.065-5.645 9.707Z" fill="#202020"/><path d="M169.169 100.298 174 88l-6.779 12.676a2 2 0 0 0 1.297 2.888L174.5 105l-4.364-2.182a2 2 0 0 1-.967-2.52Z" fill="#2F2F2F"/><path d="m200.888 83.982-6.784-15.2a8.683 8.683 0 0 0-10.394-4.79l-9.348 2.764a.463.463 0 0 1-.325-.024l-6.618-3.049c-1.38-.699-5.017.706-6.969 8.997-2.53 10.742-7.709 4.196-6.339-1.464l9.919-20.902-.345-8.292a10.63 10.63 0 0 1 11.306-6.654l1.699.227c2.28.305 4.601-.01 6.719-.91l1.985-.846a20.684 20.684 0 0 1 15.735-.191l5.67 2.251a23.179 23.179 0 0 0 6.835 1.573l.287.022a22.71 22.71 0 0 1 19.139 13.591l.18.414a20.513 20.513 0 0 0 4.74 6.745l1.906 1.798a16.204 16.204 0 0 1 4.465 16.243 16.222 16.222 0 0 0-.514 6.333l.494 4.225c.185 1.58.22 3.174.105 4.76l-.371 5.129a15.657 15.657 0 0 1-7.871 12.477l-.914.52a12.484 12.484 0 0 0-5.254 5.828l-.793 1.807a8.414 8.414 0 0 1-5.584 4.758 8.407 8.407 0 0 0-5.761 5.193l-1.827 4.882c-.014.038-.071.028-.071-.013v-15.075c0-2.02-2.102-3.353-3.929-2.492a2.757 2.757 0 0 0-1.524 3.052l.79 3.803a7.682 7.682 0 0 1-.76 5.205l-.584 1.084a9.03 9.03 0 0 0 .299 9.08 9.026 9.026 0 0 1 1.343 5.6l-.267 2.991a17.951 17.951 0 0 1-3.348 8.945l-1.838 2.535v-5.332c0-3.251-.884-6.44-2.556-9.228a17.937 17.937 0 0 1-2.023-13.569l.381-1.526a15.171 15.171 0 0 0-.818-9.747 15.166 15.166 0 0 1-.239-11.571l.878-2.26a21.047 21.047 0 0 0 1.43-7.625v-1.101c0-3.78-.796-7.519-2.337-10.97Z" fill="#30314A"/><path d="M173 112.544c2.956 1.059 8.082 2.81 9.959-3.544.364 4.676-1.609 11.05-9.959 3.544ZM185.187 90.705a2.224 2.224 0 1 1-4.447.002 2.224 2.224 0 0 1 4.447-.002ZM168.101 89.684a2.225 2.225 0 1 1-4.449 0 2.225 2.225 0 0 1 4.449 0Z" fill="#2F2F2F"/><path d="M161.101 97.69c0 1.61-1.713 2.918-3.826 2.918-2.112 0-3.825-1.307-3.825-2.919s1.713-2.918 3.825-2.918c2.113 0 3.826 1.306 3.826 2.918ZM196.774 98.681c0 1.612-1.713 2.919-3.826 2.919-2.112 0-3.825-1.307-3.825-2.919s1.713-2.918 3.825-2.918c2.113 0 3.826 1.306 3.826 2.918Z" fill="#E8759A"/><path d="M161.199 81.014c1.521-2.002 3.939-4.902 6.744-1.94-.831-2.372-3.344-5.302-6.744 1.94ZM179 77.705c2.848-.92 6.798.003 9.11 4.945-1.006-3.698-3.91-9.578-9.11-4.945Z" fill="#2F2F2F"/><path d="m212.228 106.103-1.563 9.844c-.473 2.981 2.799 5.12 5.34 3.491a3.57 3.57 0 0 1 .463-.251l2.488-1.109a12.47 12.47 0 0 0 6.707-7.315l1.167-3.373a6.609 6.609 0 0 0-10.349-7.338l-1.334 1.058a7.962 7.962 0 0 0-2.919 4.993Z" fill="#F8B9A0"/><path d="M221.99 102.821c-.943-.774-2.994 0-2.994 0s2.328-1.383 3.493-.559c1.201.847 1.413 1.767 1.498 3.354.107 2.009-.462 3.945-1.498 5.589C221.132 113.36 217 114 217 114s3.756-1.217 4.99-3.354c.977-1.689 1.288-3.044.999-5.03-.17-1.161-.152-2.101-.999-2.795Z" fill="#F2936E"/><mask id="j" style="mask-type:alpha" maskUnits="userSpaceOnUse" x="5" y="121" width="71" height="90"><path d="m5.365 137.802 41.612-16.281 28.495 72.832-41.612 16.281-28.495-72.832Z" fill="#FFBF67"/></mask><g mask="url(#j)"><path d="m23.457 171.085 33.335-13.042 23.926 61.154-33.335 13.042-23.926-61.154Z" fill="#FEB402"/></g><mask id="k" style="mask-type:alpha" maskUnits="userSpaceOnUse" x="0" y="129" width="80" height="97"><path d="m55.356 139.725 23.69 71.319-41.3 13.456-14.09-11.839L1 145.587 36.53 130.5l18.826 9.225Z" fill="#717171" stroke="#000"/></mask><g mask="url(#k)"><path d="m55.846 145.587 22.475 61.549-37.212 16.432-17.7-10.907-22.41-67.074 35.53-15.087 19.317 15.087Z" fill="#F4B10D"/><path d="m36.646 129.504 23.315 68.937-38.027 15.837-14.09-11.839-25.554-67.074 35.53-15.087 18.826 9.226Z" fill="#F0BB3A"/><circle cx="9.999" cy="152.5" r="2" fill="#E3B441"/><circle cx="22.999" cy="155.5" r="3" fill="#E3B441"/><circle cx="25.499" cy="143" r="2.5" fill="#E3B441"/><circle cx="37.499" cy="154" r="2.5" fill="#E3B441"/><circle cx="48.499" cy="164" r="3.5" fill="#F4B00D"/><circle cx="41.499" cy="207" r="3.5" fill="#F4B00D"/><circle cx="16.499" cy="169" r="2.5" fill="#E3B441"/><circle cx="32.499" cy="167" r="2.5" fill="#E3B441"/><circle cx="23.499" cy="182" r="2.5" fill="#E3B441"/><circle cx="45.499" cy="178" r="2.5" fill="#E3B441"/><circle cx="35.499" cy="190" r="2.5" fill="#E3B441"/><circle cx="26.499" cy="199" r="2.5" fill="#E3B441"/><circle cx="48.499" cy="191" r="2.5" fill="#E3B441"/><circle cx="49.499" cy="152" r="2.5" fill="#E0A61A"/><circle cx="57.499" cy="162" r="2.5" fill="#E0A61A"/><circle cx="58.499" cy="179" r="3.5" fill="#E0A61A"/><circle cx="66.999" cy="189.5" r="2" fill="#E0A61A"/><circle cx="61.499" cy="206" r="2.5" fill="#E0A61A"/><circle cx="50.999" cy="207.5" r="2" fill="#E0A61A"/><circle cx="42.999" cy="216.5" r="2" fill="#E0A61A"/><circle cx="34.999" cy="213.5" r="2" fill="#E0A61A"/></g><path d="M57 163c2.883.044 6.5 3.5 6.5 3.5 3 6.833 8.5 20.2 8.5 21 0 .8-1.334-2-2-3.5 0 0-1.677-2.564-3-4-2.754-2.988-5.556-3.2-8.5-6-1.704-1.62-4-4-4-4s-2.922-4.286-1.5-6c1.028-1.239 2.39-1.025 4-1Z" fill="#F8B9A0"/></svg>