<svg width="240" height="578" fill="none" xmlns="http://www.w3.org/2000/svg"><path d="m116.312 521.517 1.956 35.787S82.563 571.3 82.274 577.953l69.495-1.295-.743-55.885-34.714.744Z" fill="#385A65"/><path d="M139.693 553.888c1.35.344 2.314 1.832 2.025 3.209-.29 1.364-1.804 2.356-3.154 2.039-1.363-.317-2.561-2.08-2.12-3.402.44-1.323 2.272-2.383 3.525-1.75" fill="#E1E0E0"/><path d="M82.398 577.333c.275-.813.978-1.708 2.01-2.659-.743.455-1.996 1.392-2.148 2.659h.138Z" fill="#fff"/><path d="m82.274 577.953 22.362-.414c-.014-1.418 1.391-2.452 2.203-2.92a24.073 24.073 0 0 1 1.804-1.432l-23.698 1.184s-.234.11-.55.303c-1.033.951-1.736 1.846-2.01 2.659a3.244 3.244 0 0 0-.111.62Z" fill="#B2BEC3"/><path d="M117.125 556.974c.014.344 1.721.454 3.401 1.529 1.721 1.019 2.602 2.465 2.919 2.328.317-.069-.234-2.094-2.299-3.334-2.052-1.281-4.09-.84-4.021-.523ZM109.896 560.114c-.069.331 1.404.882 2.589 2.301 1.225 1.377 1.542 2.92 1.872 2.906.317.041.524-1.942-.977-3.678-1.487-1.735-3.484-1.846-3.484-1.529ZM105.916 568.93c.317.069.744-1.639-.151-3.485-.895-1.845-2.506-2.548-2.644-2.273-.193.29.868 1.268 1.584 2.783.757 1.515.881 2.948 1.211 2.975ZM117.593 548.764c.152.303 1.694-.193 3.622-.096 1.927.055 3.428.675 3.593.371.193-.247-1.294-1.473-3.552-1.556-2.258-.096-3.842 1.019-3.663 1.281Z" fill="#192E35"/><path d="m139.624 521.986 1.364 35.814s-35.939 13.417-36.325 20.056l69.509-.151.166-55.885-34.714.166Z" fill="#385A65"/><path d="M162.482 554.742c1.349.358 2.272 1.874 1.969 3.237-.303 1.364-1.831 2.328-3.195 1.984-1.349-.344-2.533-2.121-2.065-3.43.454-1.322 2.313-2.355 3.553-1.694" fill="#E1E0E0"/><path d="M104.636 577.539h.069c.193-.881.964-1.873 2.134-2.92-.799.468-2.217 1.502-2.203 2.92Z" fill="#E0E5E6"/><path d="m104.664 577.856 69.509-.151-.207-5.634-66.562 2.259s-.234.096-.565.289c-1.17 1.047-1.941 2.039-2.134 2.92-.014.111-.028.207-.041.317Z" fill="#B2BEC3"/><path d="M139.859 557.442c.013.344 1.707.496 3.387 1.584 1.707 1.047 2.561 2.507 2.878 2.383.317-.069-.193-2.094-2.245-3.375-2.037-1.308-4.089-.895-4.02-.592ZM132.574 560.486c-.068.331 1.391.909 2.548 2.342 1.198 1.405 1.487 2.948 1.831 2.934.317.055.551-1.942-.922-3.692-1.446-1.777-3.443-1.914-3.457-1.584ZM128.457 569.219c.303.069.785-1.625-.096-3.485-.868-1.859-2.465-2.589-2.603-2.314-.192.276.84 1.281 1.543 2.81.716 1.529.826 2.962 1.156 2.989ZM140.464 549.246c.138.317 1.694-.165 3.622-.041 1.928.082 3.415.73 3.594.441.193-.248-1.267-1.502-3.525-1.612-2.272-.138-3.87.95-3.691 1.212Z" fill="#192E35"/><path d="m202.194 266.187-2.355 28.21-16.73 109.29s.275 53.708.661 84.054c.33 26.351-7.56 71.533-7.56 71.533l-44.09-3.678-3.126-153.135-1.9-95.501-13.439-44.506 88.539 3.733Z" fill="#192D69"/><path d="M81.544 408.605 85.8 272.22a7.293 7.293 0 0 1 7.16-7.066l47.271-.896c4.117-.082 7.477 3.265 7.436 7.384l-2.892 259.628a7.311 7.311 0 0 1-6.182 7.135l-26.342 2.245-28.833-117.54a46.164 46.164 0 0 1-1.873-14.505Z" fill="#192D69"/><path d="M127.108 308.104c-.014 0-.041.22-.069.633-.028.455-.069 1.088-.124 1.874-.083 1.694-.22 4.104-.372 7.204-.344 6.254-.647 15.317-.95 26.53-.523 22.412-.606 53.378.441 87.567.991 34.189 2.644 65.113 3.883 87.484.647 11.157 1.17 20.194 1.528 26.489.193 3.085.345 5.51.455 7.204.055.785.11 1.419.137 1.873.042.427.055.634.083.634.014 0 .014-.22.014-.647-.014-.455-.028-1.089-.055-1.874-.069-1.694-.166-4.118-.303-7.204-.303-6.309-.73-15.345-1.267-26.503-1.088-22.384-2.644-53.295-3.635-87.484-1.047-34.161-1.06-65.127-.675-87.525.22-11.199.441-20.263.675-26.53.096-3.1.165-5.524.22-7.205.014-.799.028-1.418.041-1.873 0-.427-.013-.647-.027-.647Z" fill="#385A65"/><path d="m141.373 38.957 7.119 65.871c1.446 11.227 3.525 27.853-14.32 29.327-15.574.11-21.343-13.982-22.679-24.464-.633-4.973-1.17-9.106-1.267-9.615 0 0-11.846-1.906-18.846-9.906-4.849-5.541-7.6-16.525-8.5-23.5-1.032-8-1-14 0-23.5 1.728-16.42 10.988-29.78 27.002-32.837l1.597-.303c17.364-2.273 28.104 11.502 29.894 28.927Z" fill="#F8B9A0"/><path d="M110.171 100.076s10.52-1.377 20.283-10.455c0 0-2.947 13.059-19.691 14.712l-.592-4.257Z" fill="#F2936E"/><path d="M112.953 49.096c.385.055 1.886-1.405 4.502-2.411 2.603-1.033 4.847-1.047 5.054-1.336.096-.138-.344-.317-1.336-.33-.978-.015-2.52.22-4.145.853-1.624.634-2.85 1.502-3.483 2.135-.634.648-.771 1.061-.592 1.089ZM114.839 54.908c.179 1.185 1.336 2.012 2.575 1.846 1.239-.165 2.093-1.267 1.914-2.452-.179-1.184-1.336-2.01-2.575-1.845-1.239.165-2.093 1.267-1.914 2.451ZM108.67 68.215c-.013-.151-1.638-.124-4.268.041-.661.056-1.295.042-1.487-.371-.248-.441-.111-1.185.068-1.998.317-1.68.634-3.444.978-5.303 1.322-7.535 2.148-13.678 1.845-13.72-.303-.055-1.625 6.02-2.946 13.54-.317 1.86-.606 3.624-.895 5.318-.111.785-.372 1.694.151 2.603.262.455.812.717 1.239.744.441.041.799-.014 1.129-.055 2.603-.358 4.2-.647 4.186-.799ZM113.366 37.387c.344.592 2.52-.138 5.205-.317 2.685-.234 4.957.165 5.191-.468.11-.303-.372-.827-1.35-1.268-.963-.44-2.423-.771-4.034-.647-1.611.124-3.002.661-3.883 1.24-.881.606-1.281 1.184-1.129 1.46ZM87.506 45.624c.345.469 2.465-.344 5.081-.73 2.617-.44 4.847-.303 5.068-.867.096-.262-.4-.662-1.364-.965-.963-.289-2.395-.44-3.979-.193-1.57.248-2.92.827-3.76 1.405-.839.593-1.197 1.13-1.046 1.35Z" fill="#192E35"/><path d="M142.378 51.671c.276-.179 11.388-5.496 12.944 6.475 1.57 11.97-10.768 11.075-10.837 10.73-.055-.344-2.107-17.205-2.107-17.205Z" fill="#F8B9A0"/><path d="M147.556 63.862c.041-.041.234.124.606.234.358.11.963.138 1.556-.179 1.198-.633 2.01-2.782 1.776-4.945a6.986 6.986 0 0 0-.978-2.906c-.482-.827-1.129-1.364-1.776-1.392a1.073 1.073 0 0 0-1.157.73c-.11.358-.013.579-.069.62-.027.028-.289-.165-.247-.675.013-.248.124-.55.371-.812.262-.276.661-.441 1.116-.455.936-.055 1.872.689 2.423 1.57a7.172 7.172 0 0 1 1.157 3.237c.234 2.425-.702 4.835-2.369 5.565-.812.331-1.542.166-1.941-.068-.413-.235-.51-.496-.468-.524Z" fill="#F2936E"/><path d="M109.166 76.204c-.069-.303 2.258-.606 4.158-2.438.951-.895 1.584-1.942 2.052-2.7.468-.77.799-1.24.923-1.184.11.055-.014.606-.345 1.474-.33.854-.922 2.052-1.996 3.085-1.06 1.033-2.341 1.543-3.264 1.75-.936.179-1.514.11-1.528.013ZM88.54 51.286c.302.234 2.326-.193 5.094.303 2.768.468 4.695 1.584 5.026 1.46.151-.055-.138-.427-.978-.937-.826-.496-2.272-1.088-3.993-1.391-1.721-.303-3.208-.22-4.076-.014-.895.207-1.225.468-1.074.579ZM91.981 58.214c.18 1.185 1.336 2.011 2.575 1.846 1.24-.165 2.093-1.267 1.914-2.452-.179-1.184-1.335-2.011-2.575-1.846-1.239.18-2.093 1.267-1.913 2.452Z" fill="#192E35"/><path d="M60.353 32.124c.096-.688.523-1.294 1.088-1.721 1.211-.923 2.726-.992 4.172-1.185 3.594-.482 7.064-1.818 10.093-3.816-1.184-.44-2.313-1.005-3.305-1.79-2.051-1.626-3.428-4.312-2.878-6.86.11-.482.317-.992.771-1.185.716-.317 1.446.345 2.025.854 1.914 1.695 3.566 2.328 6.072 1.777 1.556-.344 3.03-.868 4.172-1.777l.124-.179c.523-.675 1.033-1.322 1.529-1.956 3.786-4.738 7.118-8.113 10.726-10.07 5.288-2.878 14.472-4.862 20.434-4.022 5.962.854 11.704 4.946 13.192 10.786 2.932-3.127 7.807-3.664 11.938-2.534l.096-.056c4.585 1.061 7.629 5.428 9.446 9.767.097.234.193.482.289.716 1.763 2.19 4.021 3.981 6.596 5.097.454.193.978.44 1.088.923.11.482-.248.923-.62 1.253-.964.882-2.134 1.515-3.387 1.901a19.466 19.466 0 0 0 1.817 2.92c.592.786 1.309 1.722.964 2.645-.261.716-1.088 1.088-1.845 1.075-.757-.028-1.473-.359-2.162-.69.634 1.117 1.253 2.246 1.887 3.362-1.556.468-3.222.523-4.833.234-.441 4.312-.882 9.794-1.639 12.756-1.845.206-3.635-.028-4.654 1.13-1.377 1.57-1.763 4.255-4.448 3.567-1.363-.358-2.864-2.948-3.456-4.23a65.363 65.363 0 0 1-6.003-27.163 20.776 20.776 0 0 0-6.982-3.898l.221.151c-4.833-1.074-10.272-2.052-14.431.648-3.222 2.093-4.819 5.882-7.05 9.008-4.227 5.937-17.52 11.109-17.52 11.109s-1.79 9.289-1.5 14l-1.648-5.397v.041a17.916 17.916 0 0 1-1.033-1.556l-.11-.152v-.027c-.51-.84-1.005-1.694-1.625-2.507l-.041.041c-2.272 2.535-6.417-.454-4.723-3.416.33-.592.757-1.13 1.253-1.584-1.033 1.226-2.699 1.942-4.282 1.653-1.57-.29-2.933-1.694-2.989-3.292-.04-1.089.62-2.15 1.556-2.686-2.037.4-4.186.192-6.086-.62-1.253-.565-2.52-1.53-2.3-3.044Z" fill="#192E35"/><path d="M123.555 13.474c-.027.041.744.358 1.846 1.336 1.087.964 2.382 2.727 3.194 5.234.413 1.24.744 2.645.923 4.188.179 1.529.248 3.182.33 4.931.097 1.75.179 3.582.51 5.469.165.937.385 1.9.702 2.837.317.923.688 1.929 1.501 2.659.647.592 1.638.785 2.437.523a3.784 3.784 0 0 0 1.969-1.432c.923-1.378 1.005-2.99 1.115-4.422l-.344.083c.716 1.184 1.446 2.355 2.424 3.25.964.896 2.23 1.42 3.442 1.392.606-.014 1.198-.18 1.68-.496.496-.317.826-.799 1.033-1.281.192-.496.261-1.02.179-1.515a1.996 1.996 0 0 0-.689-1.226l-.165.179a10.984 10.984 0 0 0 3.883 2.273c.496.165.895.248 1.157.303.261.041.399.069.413.055 0-.014-.138-.055-.4-.11-.261-.07-.647-.18-1.129-.359a11.193 11.193 0 0 1-3.759-2.314l-.165.18c.633.523.785 1.57.399 2.465-.192.44-.495.868-.936 1.143a2.866 2.866 0 0 1-1.528.427c-1.116.014-2.286-.468-3.195-1.322-.936-.854-1.639-1.997-2.341-3.182l-.303-.51-.041.593c-.11 1.432-.22 2.975-1.06 4.215-.427.592-1.047 1.074-1.763 1.28a2.159 2.159 0 0 1-2.079-.44c-.702-.634-1.074-1.584-1.391-2.493a18.24 18.24 0 0 1-.702-2.783c-.331-1.86-.427-3.678-.523-5.427-.097-1.736-.179-3.402-.372-4.959a21.217 21.217 0 0 0-.978-4.229c-.853-2.534-2.217-4.311-3.36-5.262-1.115-.978-1.914-1.253-1.914-1.253ZM73.971 35.651l.151.097c.124.069.276.151.455.248.193.11.44.248.757.372.303.137.661.289 1.074.413 1.625.55 4.2.992 7.27.454 3.044-.523 6.61-2.038 9.612-4.876 3.043-2.782 5.549-6.64 7.477-10.95.977-2.15 1.721-4.34 2.588-6.365.854-2.039 1.846-3.94 3.126-5.496 1.267-1.57 2.795-2.796 4.461-3.471.827-.358 1.68-.51 2.493-.579a8.89 8.89 0 0 1 2.368.18c1.487.316 2.74.977 3.718 1.68a9.527 9.527 0 0 1 2.162 2.218c.936 1.446 1.088 2.424 1.143 2.396l-.028-.179c-.041-.137-.082-.303-.138-.496-.137-.44-.399-1.06-.853-1.804a9.463 9.463 0 0 0-2.162-2.314c-.978-.744-2.245-1.447-3.787-1.777a9.402 9.402 0 0 0-2.437-.207c-.854.069-1.749.234-2.602.592-1.722.69-3.319 1.943-4.613 3.54-1.322 1.598-2.341 3.527-3.209 5.58-.881 2.052-1.624 4.228-2.588 6.363-1.9 4.284-4.379 8.1-7.353 10.841-2.947 2.796-6.417 4.312-9.419 4.863-3.029.564-5.549.179-7.174-.331-1.652-.51-2.464-1.047-2.492-.992Z" fill="#385A65"/><path d="M71.603 28.516c-.014.027.22.151.647.344.427.207 1.06.455 1.873.689.812.248 1.79.454 2.905.592 1.115.124 2.34.165 3.635.055a19.32 19.32 0 0 0 3.566-.66 16.398 16.398 0 0 0 2.768-1.075c.757-.372 1.35-.717 1.735-.992.386-.262.592-.427.578-.455-.04-.069-.908.524-2.423 1.185-.757.344-1.694.675-2.74.978-1.06.275-2.245.51-3.512.62a21.857 21.857 0 0 1-3.566-.028 19.434 19.434 0 0 1-2.864-.496c-1.625-.4-2.575-.826-2.602-.757Z" fill="#385A65"/><path d="M223.922 157.214s-19.401-59.535-42.286-58.281l-33.888-1.006s-6.471 17.301-18.919 18.486c-12.434 1.185-17.336-6.722-17.336-6.722s-35.388 13.995-39.78 28.817c-4.393 14.822-1.047 54.355-1.047 54.355l24.262-1.267-1.5 31.641-12.063 61.394 122.219 2.425-3.442-95.116-3.745-27.219 27.525-7.507Z" fill="#285CFF"/><path d="M188.989 123.838c-.055.013.027.675.234 1.845.248 1.364.55 3.031.909 4.987a866.93 866.93 0 0 1 2.932 16.447 837.75 837.75 0 0 1 2.575 16.516c.303 1.97.551 3.65.758 5.014.192 1.185.316 1.832.385 1.832.055 0 .042-.675-.055-1.859-.082-1.199-.248-2.921-.482-5.056-.468-4.256-1.253-10.124-2.327-16.585-1.074-6.446-2.244-12.245-3.194-16.433a146.068 146.068 0 0 0-1.185-4.931c-.303-1.158-.495-1.791-.55-1.777Z" fill="#192E35"/><path d="M94.928 191.596s1.377 25.236-8.633 32.371c-4.654 3.306-25.626 3.237-25.626 3.237l9.997-34.341 24.262-1.267Z" fill="#F9C7B5"/><path d="m94.088 209.476.014-.413v-.028l.138-3.03a82.688 82.688 0 0 1-.413 2.562c.096.303.179.606.261.909Z" fill="#B4B4B4"/><path d="m94.13 209.6-.014-.538-.014.414c0 .041.014.082.028.124Zm-.014-.565c.523-5.786 1.184-10.662.881-15.111.028 2.631-.055 7.204-.743 12.08l-.138 3.031ZM89.627 191.872l5.109-.262a21.543 21.543 0 0 0-.978-3.898c-2.809-7.893-6.444-19.946-9.735-25.332 1.5 9.89 3.373 19.739 5.604 29.492Z" fill="#243D44"/><path d="M93.84 208.567c.152-.854.29-1.722.414-2.562.674-4.877.77-9.436.743-12.081a31.314 31.314 0 0 0-.248-2.314l-5.108.262a365.412 365.412 0 0 0 4.2 16.695Z" fill="#C0907E"/><path d="M81.393 156.14c-.11.055.77 2.066 2.162 5.317 1.39 3.251 3.277 7.755 5.19 12.811 1.915 5.055 3.484 9.669 4.6 13.03 1.115 3.362 1.79 5.442 1.9 5.414.055-.014-.041-.551-.262-1.529a88.256 88.256 0 0 0-1.06-4.064c-.964-3.416-2.465-8.099-4.379-13.155-1.927-5.069-3.896-9.559-5.439-12.755-.77-1.598-1.418-2.879-1.9-3.747-.468-.881-.757-1.35-.812-1.322ZM114.743 214.683c-.042.041.468.537 1.404 1.377.937.84 2.314 2.039 4.049 3.485 3.442 2.907 8.289 6.819 13.755 10.992 5.467 4.174 10.52 7.811 14.238 10.373 1.859 1.281 3.374 2.3 4.434 2.975 1.06.689 1.666 1.033 1.694.992.041-.041-.51-.496-1.501-1.253-1.157-.868-2.575-1.929-4.269-3.196a1244.337 1244.337 0 0 1-14.072-10.566c-5.453-4.16-10.355-8.003-13.894-10.771-1.666-1.295-3.071-2.397-4.213-3.279-1.019-.771-1.584-1.171-1.625-1.129Z" fill="#192E35"/><path d="M11.058 125.587a4.294 4.294 0 0 0 6.072-.344l11.319-12.659a4.298 4.298 0 0 0-.345-6.075 4.294 4.294 0 0 0-6.072.345l-11.319 12.659a4.298 4.298 0 0 0 .345 6.074Zm-8.496-6.612 17.804-19.932a5.947 5.947 0 0 1 2.823-1.75L39.313 92.9a5.804 5.804 0 0 1 5.177 1.074L60.077 106.4a5.946 5.946 0 0 1 1.997 3.03l14.265 52.469a5.857 5.857 0 0 1-4.103 7.176l-49.103 13.362a5.856 5.856 0 0 1-7.173-4.105L1.28 124.375c-.523-1.873-.041-3.926 1.28-5.4Z" fill="#1A3BA3"/><path d="m23.753 97.156 15.243-4.147-1.46-5.372-15.242 4.146 1.46 5.373Z" fill="#385A65"/><path d="M21.522 95.337 40.428 90.2a1.52 1.52 0 0 0 1.06-1.846l-1.17-4.297a1.52 1.52 0 0 0-1.845-1.061l-18.906 5.138a1.52 1.52 0 0 0-1.06 1.846l1.17 4.298a1.497 1.497 0 0 0 1.845 1.06Z" fill="#192E35"/><path d="M76.67 157.407c.206-2.424 2.134-2.879 2.134-2.879s-2.162-.179-1.955-2.603c.206-2.425 1.886-3.1 1.886-3.1s-2.051-.441-1.845-2.796c.193-2.356 2.795-2.686 2.795-2.686s-2.354-.193-2.368-2.369c-.014-2.177 2.492-2.659 2.492-2.659l-2.065-2.438.674-8.031a3.052 3.052 0 0 1 1.226-2.204l7.504-5.565 9.391.785 1.35.111 6.485 6.735c.606.634.923 1.502.854 2.383l-.675 8.031-2.437 2.066s2.396.896 2.024 3.031c-.372 2.135-2.726 1.942-2.726 1.942s2.52.744 2.313 3.113c-.193 2.356-2.286 2.452-2.286 2.452s1.556.937 1.35 3.375c-.207 2.424-2.355 2.245-2.355 2.245s1.832.772 1.639 3.196c-.207 2.424-2.066 2.741-2.066 2.741l2.314 2.976-1.419 16.984s-1.142 3.43-5.328 3.086c-4.186-.345-4.338-4.16-4.338-4.16s-.372 3.705-3.814 3.485l-.455-.042c-3.428-.358-3.194-4.063-3.194-4.063s-.785 3.733-4.97 3.388c-4.173-.344-4.738-3.926-4.738-3.926l1.419-16.984 2.767-2.548c-.013-.028-1.79-.648-1.583-3.072Z" fill="#E0E7FF"/><path d="m87.176 120.063 10.699.896a.88.88 0 0 0 .95-.799l.344-4.133a.879.879 0 0 0-.798-.95l-10.7-.896a.88.88 0 0 0-.95.799l-.344 4.133a.87.87 0 0 0 .799.95ZM79.81 138.343c-.015.193 5.135.785 11.497 1.322 6.361.524 11.539.799 11.553.606.013-.193-5.123-.785-11.498-1.322-6.362-.537-11.539-.813-11.553-.606ZM77.937 135.89c-.014.193 5.92.854 13.273 1.461 7.354.619 13.316.95 13.33.757.013-.193-5.921-.854-13.274-1.474-7.353-.606-13.316-.936-13.33-.744ZM79.12 143.467c-.013.193 5.095.785 11.402 1.308 6.32.524 11.442.785 11.456.593.014-.193-5.08-.786-11.401-1.309-6.306-.523-11.443-.785-11.456-.592ZM78.694 148.646c-.014.193 5.095.785 11.401 1.308 6.32.524 11.443.799 11.47.593.014-.193-5.095-.785-11.401-1.309-6.32-.523-11.456-.785-11.47-.592ZM78.212 154.363c-.014.193 5.095.785 11.401 1.308 6.32.524 11.443.785 11.457.593.013-.193-5.081-.786-11.402-1.309-6.306-.523-11.442-.785-11.456-.592ZM77.73 160.079c-.014.193 5.095.785 11.401 1.309 6.32.523 11.443.799 11.47.592.014-.193-5.094-.785-11.401-1.308-6.32-.524-11.443-.799-11.47-.593ZM75.472 163.124c-.014.193 5.976.854 13.384 1.474 7.408.619 13.439.964 13.453.757.014-.193-5.976-.854-13.384-1.474-7.422-.62-13.44-.95-13.453-.757Z" fill="#192E35"/><path d="M46.156 136.882c.028-2.81 2.217-3.485 2.217-3.485s-2.492-.027-2.465-2.837c.028-2.81 1.914-3.72 1.914-3.72s-2.382-.344-2.354-3.071c.027-2.728 3.001-3.306 3.001-3.306s-2.726-.028-2.919-2.521c-.192-2.493 2.644-3.251 2.644-3.251l-2.575-2.631.11-9.284a3.56 3.56 0 0 1 1.226-2.645l8.165-7.011 10.85.124 1.57.013 8.014 7.205a3.51 3.51 0 0 1 1.17 2.658l-.11 9.284-2.63 2.576s2.823.827 2.562 3.32c-.262 2.493-2.975 2.466-2.975 2.466s2.947.647 2.92 3.375c-.028 2.727-2.424 3.016-2.424 3.016s1.86.964 1.832 3.761c-.028 2.81-2.534 2.782-2.534 2.782s2.176.73 2.134 3.527c-.027 2.81-2.148 3.333-2.148 3.333l2.906 3.223-.22 19.643s-1.033 4.036-5.867 3.981c-4.833-.055-5.328-4.421-5.328-4.421s-.124 4.284-4.104 4.311h-.523c-3.966-.124-4.007-4.408-4.007-4.408s-.592 4.353-5.425 4.298c-4.833-.055-5.77-4.119-5.77-4.119l.22-19.643 2.975-3.168c.014 0-2.08-.565-2.052-3.375Z" fill="#E0E7FF"/><path d="M48.194 114.719c0 .193 5.962.427 13.315.509 7.353.083 13.33 0 13.33-.206 0-.193-5.963-.427-13.316-.51-7.353-.083-13.315 0-13.329.207ZM45.84 112.06c0 .193 6.884.441 15.366.538 8.496.096 15.381.013 15.381-.18 0-.192-6.885-.44-15.38-.537-8.483-.096-15.367-.014-15.367.179ZM47.822 120.669c0 .193 5.907.427 13.22.51 7.297.083 13.218-.014 13.218-.207 0-.192-5.907-.427-13.205-.509-7.312-.083-13.219.014-13.233.206ZM47.754 126.662c0 .192 5.907.427 13.205.509 7.297.083 13.218 0 13.218-.206 0-.193-5.907-.427-13.218-.51-7.285-.083-13.192 0-13.205.207ZM47.685 133.259c0 .193 5.907.427 13.218.51 7.298.083 13.22-.014 13.22-.207 0-.193-5.908-.427-13.22-.509-7.297-.083-13.218.013-13.218.206ZM47.602 139.872c0 .192 5.921.427 13.219.509 7.298.083 13.219-.014 13.219-.206 0-.193-5.907-.427-13.22-.51-7.297-.083-13.218 0-13.218.207ZM45.248 143.55c0 .192 6.94.44 15.504.537 8.565.096 15.505.014 15.518-.179 0-.193-6.94-.441-15.504-.538-8.565-.096-15.518-.013-15.518.18Z" fill="#192E35"/><path d="m55.368 93.12 11.938.138c.675.013 1.226-.538 1.24-1.213l.055-4.339c.014-.675-.537-1.226-1.212-1.24l-11.938-.137c-.675-.014-1.226.537-1.24 1.212l-.054 4.34c0 .674.537 1.225 1.211 1.239Z" fill="#385A65"/><path d="M66.315 93.203c.193 0 .386-1.46.427-3.279.041-1.818-.083-3.292-.29-3.306-.192 0-.385 1.46-.426 3.279-.041 1.818.082 3.292.289 3.305ZM63.864 92.996c.193 0 .386-1.46.427-3.278.041-1.819-.083-3.293-.29-3.306-.192 0-.385 1.46-.426 3.278-.028 1.818.096 3.306.29 3.306ZM61.413 93.092c.193 0 .385-1.46.427-3.278.041-1.818-.083-3.292-.29-3.306-.192 0-.385 1.46-.426 3.278-.042 1.819.082 3.292.289 3.306ZM58.755 92.968c.193 0 .386-1.46.427-3.278.042-1.819-.082-3.292-.289-3.306-.193 0-.385 1.46-.427 3.278-.027 1.819.097 3.306.29 3.306ZM56.304 92.9c.193 0 .386-1.46.427-3.28.042-1.817-.082-3.291-.289-3.305-.193 0-.4 1.46-.427 3.278-.027 1.819.097 3.292.29 3.306Z" fill="#192E35"/><path d="M115.927 165.754 5.853 164.487A5.922 5.922 0 0 1 0 158.495l.055-5.124c.04-3.279 2.726-5.896 5.99-5.854l110.074 1.267a5.922 5.922 0 0 1 5.852 5.992l-.055 5.124c-.041 3.265-2.713 5.896-5.99 5.854Z" fill="#F25E82"/><path d="m9.75 162.696 12.86 114.621a6.554 6.554 0 0 0 6.293 5.826l65.337 2.094a6.558 6.558 0 0 0 6.733-5.909l11.512-116.122c.385-3.843-2.617-7.177-5.66-7.19l-89.709-.593c-4.737-.041-7.807 3.375-7.367 7.273Z" fill="#F25E82"/><path d="M83.734 208.456s3.166 3.155 1.72 6.53c-1.459 3.375-6.237 9.835-6.237 9.835s-.716-5.179-5.067-10.924l-2.85 1.571 3.07-12.026 11.553 3.417-2.19 1.597Z" fill="#fff"/><path d="M77.799 227.355s-1.322 2.521-4.558 3.072c-3.236.551-10.327.152-10.327.152l.124-10.717 12.434.138c-.014.013 2.107 2.727 2.327 7.355ZM48.346 191.927s.977-4.367 4.613-4.932c3.635-.564 11.649.055 11.649.055s-4.007 3.361-6.54 10.097l2.85 1.584-11.801 3.802-3.25-11.598 2.479.992Z" fill="#fff"/><path d="M67.486 186.899s2.836-.221 5.025 2.231c2.19 2.452 5.618 8.678 5.618 8.678L69 203.401l-6.485-10.607s1.184-3.237 4.97-5.895ZM49.943 230.482s-4.337 1.047-6.458-1.956c-2.12-3.003-5.109-10.469-5.109-10.469s4.779 2.108 11.953 1.392l.151-3.251 8.634 8.912-8.95 8.058-.221-2.686Z" fill="#fff"/><path d="M36.958 215.537s-1.446-2.452-.234-5.496c1.226-3.045 5.288-8.885 5.288-8.885l9.06 5.716-6.637 10.511c.014 0-3.415.385-7.477-1.846Z" fill="#fff"/><path d="M25.488 234.133c.193-.014-1.157-15.58-3.015-34.768-1.873-19.188-3.718-34.892-3.732-34.699-.014.372 1.157 15.58 3.015 34.768 1.86 19.188 3.526 34.726 3.732 34.699Z" fill="#192E35"/><path d="M8.166 164.501c0 .193 23.422.62 52.31.937 28.903.316 52.311.413 52.325.22 0-.193-23.408-.62-52.31-.937-28.903-.316-52.325-.413-52.325-.22Z" fill="#192E35"/><path d="M17.309 236.116s-9.432 1.75-7.092 14.188c0 0-4.2 11.048 1.309 15.304 5.507 4.257 2.919 15.028 8.578 18.031 2.988 1.585 8.62 2.686 13.26 3.375 2.975.441 4.228-3.609 1.542-4.972a14.297 14.297 0 0 0-1.542-.675l-6.912-3.114-4.186-10.482 12.654 1.653c1.776.234 3.622-.565 4.462-2.149.743-1.405.633-3.168-2.754-4.642-5.839-2.535-15.725-3.843-15.725-3.843l-1.611-11.117s3.91 3.706 5.094-.427c1.212-4.105-7.077-11.13-7.077-11.13Z" fill="#F8B9A0"/><path d="M15.147 241.998c-.083.027 0 .785.468 1.942.468 1.143 1.39 2.645 2.837 3.898.716.62 1.487 1.157 2.313 1.433.812.289 1.694.234 2.286-.083.606-.289.95-.744 1.088-1.088.123-.344.096-.551.055-.565-.097-.041-.262.799-1.336 1.185-.51.193-1.17.193-1.859-.069-.688-.262-1.377-.758-2.052-1.336-2.781-2.397-3.607-5.4-3.8-5.317ZM11.264 263.501c-.028.027.165.33.647.757a9.22 9.22 0 0 0 2.3 1.474c2.106 1.006 5.26 1.557 8.66 2.094 3.43.565 6.527 1.019 8.786 1.323 2.258.303 3.649.44 3.662.344.014-.097-1.363-.413-3.593-.84a315.56 315.56 0 0 0-8.73-1.529c-3.429-.538-6.527-1.006-8.593-1.846-2.079-.827-3.056-1.874-3.14-1.777Z" fill="#F2936E"/><path d="M22.114 95.379c.055.193 3.787-.62 8.345-1.818 4.558-1.199 8.22-2.315 8.165-2.507-.055-.193-3.787.62-8.344 1.818-4.558 1.198-8.22 2.314-8.166 2.507Z" fill="#192E35"/><path d="M131.679 140.712c-.385-2.411 1.391-3.306 1.391-3.306s-2.134.344-2.52-2.053c-.385-2.41 1.088-3.471 1.088-3.471s-2.093.069-2.465-2.273c-.372-2.341 2.079-3.278 2.079-3.278s-2.327.372-2.864-1.736c-.537-2.107 1.777-3.182 1.777-3.182l-2.589-1.873-1.281-7.948a3.062 3.062 0 0 1 .661-2.438l5.949-7.205 9.294-1.501 1.336-.22 7.918 4.972a3.065 3.065 0 0 1 1.39 2.108l1.281 7.948-1.873 2.59s2.534.289 2.685 2.451c.152 2.163-2.175 2.549-2.175 2.549s2.616.124 3.001 2.452c.372 2.341-1.624 2.934-1.624 2.934s1.735.537 2.12 2.948c.386 2.41-1.749 2.755-1.749 2.755s1.969.303 2.355 2.699c.386 2.411-1.336 3.169-1.336 3.169l2.961 2.328 2.712 16.832s-.289 3.609-4.42 4.284c-4.144.675-5.205-3.002-5.205-3.002s.524 3.691-2.864 4.297l-.454.069c-3.415.482-4.076-3.182-4.076-3.182s.138 3.816-4.007 4.477c-4.144.675-5.549-2.672-5.549-2.672l-2.713-16.833 2.08-3.141c-.055.028-1.928-.151-2.314-2.548Z" fill="#E0E7FF"/><path d="m132.891 101.936 10.603-1.708a.865.865 0 0 0 .716-1.006l-.661-4.09a.884.884 0 0 0-1.005-.731l-10.603 1.708c-.482.069-.799.523-.73 1.006l.661 4.091a.877.877 0 0 0 1.019.73ZM130.137 121.441c.028.193 5.164-.468 11.47-1.488 6.307-1.019 11.388-1.997 11.36-2.204-.027-.193-5.163.469-11.47 1.488-6.306 1.033-11.387 2.011-11.36 2.204ZM127.728 119.526c.027.193 5.962-.592 13.232-1.777 7.284-1.171 13.15-2.286 13.123-2.479-.028-.193-5.963.592-13.233 1.777-7.284 1.171-13.164 2.286-13.122 2.479ZM130.702 126.592c.027.193 5.122-.468 11.387-1.473 6.252-1.006 11.305-1.984 11.264-2.191-.042-.206-5.123.469-11.388 1.474-6.251 1.02-11.291 1.998-11.263 2.19ZM131.528 131.731c.027.193 5.122-.469 11.387-1.474 6.252-1.006 11.305-1.984 11.264-2.19-.028-.193-5.122.468-11.388 1.474-6.251 1.005-11.291 1.983-11.263 2.19ZM132.437 137.378c.027.193 5.122-.468 11.387-1.474 6.252-1.005 11.305-1.983 11.264-2.176-.041-.193-5.122.468-11.388 1.474-6.237 1.005-11.291 1.983-11.263 2.176ZM133.359 143.04c.028.193 5.137-.469 11.388-1.474 6.251-1.006 11.305-1.984 11.263-2.177-.027-.192-5.122.469-11.387 1.474-6.251 1.006-11.305 1.984-11.264 2.177ZM131.886 146.553c.027.192 6.004-.607 13.343-1.791 7.339-1.185 13.26-2.301 13.232-2.507-.027-.193-6.003.606-13.342 1.791-7.34 1.184-13.261 2.314-13.233 2.507Z" fill="#192E35"/><path d="M153.408 121.537s6.651 2.328 6.898 5.4c.248 3.058 6.748 22.701 6.748 22.701l29.343 15.083 27.043-7.383s13.412 26.585 15.285 34.561c1.459 6.199 1.597 24.753-6.431 27.274-10.947 3.43-27.222-4.835-36.159-12.287-12.971-10.813-39.216-36.352-42.865-44.259-3.649-7.906-6.003-16.226-6.003-16.226l6.141-24.864Z" fill="#F8B9A0"/><path d="M153.408 121.537s-16.372-3.857-17.515-3.03c-1.143.826-7.959 8.995-7.931 10.537.027 1.543 2.051 4.767 2.051 4.767s-2.286 7.176 3.333 9.642c0 0-4.131 3.03-2.672 6.653.84 2.066 3.043 3.678 3.043 3.678l.992-4.614 8.496-2.742 4.447 1.281 6.94-11.033-1.184-15.139Z" fill="#F8B9A0"/><path d="M133.869 143.481c.151-.014-.069-1.075.854-2.287.853-1.295 2.891-2.011 5.287-2.562 4.764-1.24 8.579-2.438 8.51-2.7-.069-.262-3.98.537-8.744 1.777-1.184.303-2.354.606-3.373 1.116-1.019.496-1.818 1.239-2.245 1.997-.922 1.557-.372 2.741-.289 2.659Z" fill="#F2936E"/><path d="M132.478 142.489c.138 0 .193-1.35.179-3.513.055-1.047-.206-2.479.234-3.581.455-1.116 2.107-1.323 3.718-1.681 6.444-1.432 11.635-2.81 11.58-3.072-.055-.261-5.329.689-11.787 2.136-.798.192-1.583.316-2.395.606-.785.261-1.598.84-1.928 1.653-.317.799-.276 1.542-.248 2.19.055.606.096 1.184.138 1.763.206 2.176.385 3.499.509 3.499ZM129.821 133.797c.123.082.812-1.033 1.239-2.976.248-.95.495-2.08 1.129-3.099.62-1.061 1.735-1.653 3.194-1.736 5.935-.151 10.81-.344 10.81-.633.013-.248-4.847-.482-10.906-.331-.771.069-1.57.234-2.286.62-.702.399-1.225 1.006-1.583 1.612-.702 1.226-.881 2.452-1.047 3.416-.22 1.97-.647 3.058-.55 3.127ZM186.579 160.134c-.055.124 2.038 1.226 5.439 2.976 3.635 1.887 8.193 4.27 13.246 6.887 5.012 2.7 9.543 5.138 13.136 7.08 3.36 1.833 5.453 2.935 5.522 2.824.069-.11-1.9-1.432-5.177-3.416-3.277-1.983-7.863-4.614-13.026-7.342-5.164-2.727-9.915-5.055-13.398-6.653-3.498-1.584-5.687-2.48-5.742-2.356Z" fill="#F2936E"/></svg>